<?xml version='1.0' encoding='utf-8'?>
<svg xmlns="http://www.w3.org/2000/svg" width="13in" height="18in" version="1.1" style="shape-rendering:geometricPrecision; text-rendering:geometricPrecision; image-rendering:optimizeQuality; fill-rule:evenodd; clip-rule:evenodd" viewBox="0 0 13000 18000"> <defs> <style type="text/css">  .fil2 {fill:none} .fil0 {fill:black} .fil1 {fill:white}  </style> </defs> <g id="Layer_x0020_1"> <metadata id="CorelCorpID_0Corel-Layer"/> <path class="fil0" d="M10301 11136l-219 2c52,-38 67,-16 136,-30 60,-12 69,-50 83,28zm-8852 -120c75,43 41,-16 64,42 -26,23 45,21 -58,22 -16,0 -51,-7 -68,-8 -49,-4 -102,-4 -152,-7 17,-42 15,-23 2,-65l-74 -3 -28 66c-139,1 -63,-52 -181,-49l-27 42c-153,30 -487,17 -656,17 127,-57 316,-19 459,-29 65,-5 144,-28 211,-37 46,-6 78,2 118,-9 55,-15 35,-31 102,-36 140,-11 715,-113 792,-108 53,3 101,-3 153,-8 -3,70 3,31 14,50 41,0 30,8 71,-18 67,-42 47,-4 200,-32 102,-19 90,27 351,-13 83,-13 95,-14 156,-55 58,-4 98,4 157,-7 196,-35 132,-66 406,-92 259,-24 136,-45 285,-47 110,-1 242,-10 334,12 34,60 11,53 94,72 57,13 78,23 128,38 77,23 204,54 283,64 46,24 52,130 120,24 93,-1 108,0 181,43 89,-14 36,-31 141,-23l540 32c456,43 663,-22 1042,-58 93,-9 358,-4 410,-18 164,-44 104,-8 270,-19 62,-4 105,-20 166,-18 82,2 115,20 167,-26 179,33 -20,-43 319,-21 126,8 256,34 376,38 472,17 1016,-82 1568,-43 76,5 251,46 336,65 376,82 347,-13 408,145l145 27c4,-8 7,-16 8,-13 12,27 -4,-11 34,-28 54,22 34,38 111,42 67,4 91,19 139,17l27 -29c71,-5 90,15 154,14 57,0 90,-23 145,-32l19 -49c76,-8 93,-31 167,-5 128,46 155,-80 488,53 48,19 88,48 131,63 51,19 96,14 151,43 70,37 16,44 109,84 14,6 103,63 121,80l-692 -59c-186,-7 -496,13 -695,6 -273,2 -540,-7 -806,-29 -14,-15 -54,-55 -73,-62 -96,-37 -135,-13 -228,14 -61,18 -64,12 -70,63 -188,7 -1820,28 -1873,10 -55,-39 -13,-48 -102,-55l-23 58c-246,-3 -468,1 -713,1 -187,0 -378,-12 -569,-14 -198,-1 -400,5 -598,-1 -90,-2 -175,-21 -263,-25 -286,-14 -681,14 -886,1 38,-40 37,-1 86,-42 -3,-4 -24,-53 -89,-45 -52,6 -48,41 -39,86l-320 -29c-4,-6 -40,-81 -142,-58 -31,7 -21,9 -35,18l70 36c35,12 41,15 63,27 -194,14 -395,-23 -589,-3 -164,17 -408,-13 -577,-15 -100,-1 -184,16 -279,21l-903 -18c-46,-35 -7,-40 -82,-50 -52,-7 -89,-8 -128,16 17,31 -25,31 94,34 -143,5 -398,-24 -513,-1 27,-66 13,-66 -65,-69l-28 -39c-35,1 -60,-2 -61,34zm9498 -103c48,-6 56,-11 90,6 -51,21 -53,4 -90,-6zm428 -147c26,-10 28,-1 47,14 -51,24 -30,-5 -47,-14zm-787 0c71,-35 10,-23 60,3 121,62 52,63 148,101 -50,2 -68,-9 -107,-33l-94 -61c-2,-2 -3,-11 -7,-10zm1211 31c12,-19 11,-8 35,-25l99 -138c-44,86 -31,128 -135,163zm-1347 -215c37,33 51,73 67,123 -22,-38 -57,-62 -67,-123zm1330 121c-18,-98 3,-184 12,-282 22,25 32,48 51,78 29,46 38,38 63,72 -17,35 -87,127 -127,132zm-1128 -132c17,-32 149,-196 201,-234l-11 416c-152,-11 -127,-94 -189,-182zm351 240c5,-84 -9,-135 -6,-212 8,-173 -19,-196 39,-259 60,7 202,122 231,161 -7,132 -137,298 -264,309zm-31 57l-67 -9c-29,-117 7,-147 -5,-273 -9,-92 -11,-225 41,-276 7,113 -17,214 -19,317 -2,62 10,80 6,142 -4,61 5,86 45,99zm648 -161c-54,-8 -115,-94 -126,-135 76,-49 31,-21 78,-91 23,-35 53,-74 85,-89 2,78 -3,261 -36,315zm255 -272l59 70c-46,-24 -37,-35 -59,-70zm-1311 107c-22,-18 -26,-22 -37,-53 224,-92 140,-175 260,-195 -22,58 -71,89 -106,132 -33,41 -60,88 -118,116zm1258 -253l138 12c23,47 5,64 -21,109 -50,-36 -72,-92 -117,-122zm-278 28c7,-52 5,-53 34,-84l38 15c-31,39 -41,58 -71,69zm-336 -64c18,-16 27,-18 28,-49 29,41 23,20 58,49l-5 53c-50,-14 -51,-23 -81,-53zm153 -14c0,-4 21,-22 15,3 -4,17 -15,34 -15,-3zm-289 8c98,19 238,172 261,177 -80,-24 -193,-131 -261,-177zm836 -29l51 3 -51 -3zm352 -59l27 62 -27 -62zm-1398 -67c12,-2 24,-6 37,-6 32,1 -5,-3 24,2 51,10 24,103 11,131 -42,-2 -47,-11 -69,-29l-4 -98zm734 69l117 4c-35,23 -81,14 -117,-4zm344 -74l11 61 -97 10c22,-28 11,-15 37,-37 34,-29 13,-18 49,-34zm-700 76l-7 -103c39,80 6,62 7,103zm-467 16l-12 -104c39,28 35,68 12,104zm-68 74c-30,64 -52,109 -113,126 -80,-113 -31,-312 -4,-449 41,9 77,62 109,91 -4,115 -28,110 7,233zm1318 -246c92,64 75,472 -28,560l-20 -34c138,-116 59,-175 74,-238 43,-179 -2,-132 -26,-287zm-677 -4l-3 62c49,5 43,14 45,-42l4 73c-77,4 -105,5 -101,-78 3,-60 45,-92 95,-114 5,98 9,54 -42,100zm447 -173c35,54 69,46 86,132 -36,52 -42,57 -90,93l5 -225zm-69 97l2 40 -2 -40zm-143 -76c43,-20 25,-11 63,-38l13 221c-46,-47 -78,-80 -77,-183zm-505 191c30,-37 101,-115 151,-126 -9,58 -73,88 -151,126zm-56 -50c0,-102 24,-440 57,-518l56 4c45,80 35,320 34,423l-146 91zm947 -98c-37,-71 -7,-44 1,-55l15 99c14,-55 6,-2 -16,-44zm-688 6c0,-57 47,-105 102,-116 -11,61 -56,94 -102,116zm17 -233c-7,37 32,38 -5,120l5 -120zm1326 132c-55,-28 -74,-107 -3,-139l48 101c-39,-5 -2,2 -33,-9 -38,-13 28,8 -34,-13 3,35 -4,16 10,51 15,39 11,9 13,10zm-2573 -61l-40 -41c-20,-18 -21,-14 -43,-27l17 -49c29,20 85,72 67,117zm-1467 -124c0,101 51,236 66,350 -27,-40 -42,-107 -54,-169 -6,-32 -10,-59 -17,-95 -1,-5 -9,-46 -9,-46 -1,-58 -5,-8 13,-40zm2116 31c23,-77 117,-198 205,-203 17,199 -24,342 -29,527 -57,7 -74,-39 -115,-77 -35,-33 -78,-77 -94,-108l134 -53c-2,-90 -22,-71 -101,-85zm1831 -91c36,16 34,13 13,41l-13 -41zm-1763 435c-101,-7 -131,-160 -230,-188 -8,12 -10,9 -19,34 -2,5 -7,28 -8,34 -26,124 -50,258 -32,386 8,53 -2,95 0,115 -2,-21 -36,-235 -38,-238 -29,11 -21,-26 -28,83 -68,-109 35,-189 40,-294 11,-212 69,-162 79,-334l40 -34c-111,222 27,235 115,343 36,44 46,55 81,93zm-587 -408l-26 -58c77,-8 148,63 224,99l-11 64 67 41 -41 14 26 51 -549 212c-28,-38 -54,-78 -51,-138l109 -83 32 -81c41,78 43,123 78,162 25,27 35,-14 42,-20 2,-2 4,-5 6,-7 32,-32 20,1 47,-53 66,15 38,32 119,46 -22,-108 -57,-25 -62,-128l109 83c10,-16 21,-12 11,-64 -12,-61 -50,-117 -78,-161l-54 21zm2310 67c3,116 -153,316 -217,385 -35,38 -41,15 -65,61 -49,92 -5,111 5,188 -40,44 -41,53 -85,75 7,-508 -70,-287 -89,-450 -8,-67 -8,-83 -50,-121 -29,-26 -28,-19 -51,-45 -195,-226 -356,-63 -416,-40 -37,-44 -69,-148 -86,-215 199,8 358,-20 435,-10l449 10c37,140 110,147 169,161zm-7759 -152c21,-21 8,-7 28,-37 55,2 152,29 193,60 -62,27 -353,37 -439,35 72,-30 122,-57 218,-57zm7681 17c-10,-28 0,-32 25,-40l-25 40zm-3616 623c-56,1 -74,-18 -100,-52 2,-131 -25,-225 -48,-343 -23,-115 -67,-206 -71,-326 69,5 57,-10 69,61l59 288c16,68 26,130 44,194 17,60 59,117 47,177zm-2926 -588c-31,-15 -47,-52 -48,-55 -1,-5 -5,-6 -8,-9 -69,47 11,23 -56,44 -13,-37 -8,-30 2,-49 39,-22 62,-10 116,-7 11,36 21,32 -6,76zm5063 411c-8,-81 4,-77 16,-140 16,-83 -36,-374 55,-417 4,90 -21,198 -31,289 -13,122 4,168 -40,268zm-820 -292c-52,-45 -89,-162 -124,-210 38,23 64,31 105,48l19 162zm-4879 -204c37,-23 64,-19 106,0 -14,11 35,18 -53,15 -33,-1 -35,-5 -53,-15zm7345 -214c33,40 19,155 -5,204l5 -204zm-7180 228c90,-72 234,-49 319,-14 -6,10 -32,47 -34,52l-102 -1c35,-45 -26,37 25,-19 21,-23 5,13 15,-32 -157,-26 -134,95 -223,14zm5069 94c-126,7 -114,-34 -187,-74 -50,-28 -131,-32 -182,-53 158,-14 321,-11 480,-3 -12,51 -22,41 -55,64 -47,33 -25,26 -56,66zm-4179 104c145,-24 311,-35 458,-56 145,-21 680,-161 790,-209 107,-46 231,-114 361,-141 60,76 74,55 169,40 18,83 47,149 137,158 92,9 105,-57 236,-45 43,64 33,182 54,267 72,290 69,478 267,525 71,17 137,20 131,-69 -2,-24 -7,-31 -15,-48 -77,-171 -93,-292 -141,-484 -17,-67 -15,-132 -26,-202l355 2c276,0 122,56 278,55 115,-1 -24,-42 278,-41 47,0 58,15 125,13 53,-2 86,-3 140,1l55 65c-4,32 -50,170 -67,198 -63,110 -112,69 -137,127 -27,98 61,226 134,260 75,-4 139,-87 251,-125l272 -82c4,92 -46,127 -55,219 -6,63 26,168 28,250 5,261 38,278 130,429 -57,-4 -97,-15 -153,-28 -50,-12 -95,-15 -141,-26 -346,-83 -909,-65 -1277,-46 -131,7 -522,59 -599,-35 -37,-46 -13,-52 -94,-73 -46,-12 -96,-14 -138,-29 -138,-48 -587,-230 -708,-305 -303,-189 -536,-319 -870,-463 -59,-25 -186,-64 -227,-100zm-1972 -143c42,-30 225,-110 290,-110 -32,57 -73,50 -141,67 -54,13 -93,36 -149,43zm-1039 -299c82,-1 164,108 229,149 90,56 175,70 287,116 210,85 445,118 687,119 258,1 502,-50 750,-44 422,10 634,0 1036,161l419 179c165,83 302,141 456,252 32,23 24,17 62,36 45,22 87,46 124,70 96,60 150,90 264,138l430 168c66,29 116,20 162,40 -67,48 -302,-24 -411,-28 -93,-4 -1096,120 -1243,160 -59,16 -71,-1 -133,15 12,19 0,4 17,18l-197 33c-3,-3 -6,-11 -8,-8 -2,3 -10,-10 -16,-13 -28,-15 -6,-5 -31,-10l-13 36c0,1 -1,4 -1,6 -109,-15 79,-45 -347,-39 -370,5 -753,-37 -1111,-102l-455 -126c-51,-17 -73,-48 -130,-81 -64,-38 -215,-103 -289,-113 -96,-13 -105,-138 -248,-152 -22,-49 6,-12 -37,-48 1,-2 2,-6 2,-5l22 -29c-61,-88 -208,-248 -233,-385 -27,-149 -111,-373 -44,-512zm417 147c116,-118 111,-137 180,-300 100,-1 114,34 168,72 95,66 446,162 480,229 -64,42 -129,57 -199,93 -75,39 -100,68 -204,46 -86,-19 -386,-98 -424,-139zm7037 58c27,-44 140,-127 200,-100 -22,12 -68,23 -103,41 -27,14 -34,19 -51,32 -24,19 -1,13 -46,27zm-1381 -49c-47,-7 -74,-20 -87,-62 24,12 68,45 87,62zm-1100 -105l1 62c-38,9 -47,3 -70,-12 16,-41 22,-47 69,-50zm-3240 166c-4,-73 19,-79 -25,-118 97,24 192,27 293,56l-137 -1c10,50 2,35 29,72 -78,22 -82,58 -161,-9zm6054 -140c97,-2 70,9 122,34 66,32 46,-12 102,49 50,55 108,100 129,188 83,356 216,105 13,1030 -21,94 -26,57 -136,166 -66,65 -19,54 -53,101 -6,9 -100,97 -140,-16 39,-6 30,3 85,11 10,-24 6,-33 23,-57 18,-26 31,-19 46,-51l52 -133 52 -12c1,-101 27,-67 51,-145 45,-145 94,-615 18,-734 -45,-70 -7,22 -73,-134 -38,-90 -133,-170 -157,-260 -54,-5 -94,-7 -132,-36zm-6270 29c32,-33 14,-31 56,-35 -19,44 -19,51 -1,96l29 3c45,6 -16,-13 20,5 0,0 20,83 -104,-9l-1 -60zm3541 -14c26,-15 737,-25 822,-22 -65,27 -759,50 -822,22zm2681 6c-36,-8 -62,-28 -87,-44 50,4 69,6 87,44zm-827 -201c65,15 102,35 179,49 97,18 298,9 368,43 96,47 113,-16 138,78 -56,16 -50,2 -129,25 -56,-51 -104,-20 -194,-21 -75,-1 -146,-4 -222,-4 -74,0 -148,-9 -222,-9 -94,-1 -135,31 -133,-74 98,2 170,-8 217,-88zm926 64l11 74 -115 -4 -3 -69 107 -1zm2158 85c33,-8 36,-3 72,-20 25,-12 8,-14 45,-23 -22,47 -59,46 -117,43zm-2097 -30c-9,-18 -3,-15 7,-39l-7 39zm-2645 0c47,-21 19,-45 29,-108 43,23 78,161 -29,108zm-3147 -6c37,4 66,0 95,5 55,10 -18,14 49,18l-144 -23zm-972 9c-44,-123 88,-96 138,-51l-41 89c-53,-38 -12,-12 -42,-73 -74,40 29,28 -56,35zm8855 -65c18,-30 35,-44 89,-42 -7,41 -11,41 -31,68l-58 -26zm-5827 81c2,-2 4,-6 6,-7l149 -83c275,-88 114,-70 241,-24 30,11 27,-2 59,20 -77,101 -152,-64 -233,99 -79,-12 -11,-21 -101,7l-55 13 25 29c12,12 -2,-6 17,16l-441 133 -24 -40c-13,-27 -3,-12 -17,-36 -29,45 -4,30 1,102 -139,-12 5,-39 -108,-92l14 101 -501 98c-127,19 -437,5 -531,-46l-24 -73c308,-30 373,19 789,-43 145,-22 564,-169 641,-163l16 70 88 -16c-12,-30 -44,-46 -66,-81l55 15zm695 -60c-36,-14 -49,-48 -59,-81 47,10 93,30 59,81zm4323 -96l-4 112c-39,-25 -9,6 -38,-39l42 -73zm-1855 4c41,-44 11,-40 59,-42l15 74 -136 -10c-8,-58 -6,-50 11,-73 26,40 3,27 42,59 3,-2 8,-5 10,-8zm-161 -79c53,16 35,29 54,92l-50 -4 -4 -87zm-5221 145l-16 -53c-59,-1 -38,-4 -83,21 6,-53 -28,-69 50,-44l172 94c-17,8 -39,48 -65,-36l-58 18zm-599 131c-1,-73 -11,-127 26,-182l20 -24c1,-5 5,-5 8,-8l52 6 -34 70 -55 13 -18 123zm5289 -33c-22,-56 -38,-186 -3,-240 19,37 -3,160 3,240zm-1748 -192c108,-28 4,-71 167,-146 35,17 50,28 76,55 8,81 31,185 17,266 -93,3 -85,-7 -211,-69 -9,-66 -11,-70 -48,-106zm-4091 -23c47,8 25,-7 39,40 -47,-15 -33,2 -39,-40zm6244 -59c3,8 17,6 8,53 -9,45 -1,15 -21,30 -3,-7 -19,-9 -10,-54 9,-47 2,-16 24,-29zm-4244 305c-83,26 -529,-111 -621,-152 -50,-23 -128,-60 -175,-77 38,10 61,25 94,39 218,87 274,97 498,155 41,11 187,28 204,35zm-1903 -225c29,-9 35,2 48,27l-48 -27zm3898 -26c7,-5 -3,-37 48,0 -17,9 25,6 -22,9 -27,2 -15,-3 -26,-9zm-2998 16c-33,13 -35,30 -36,-21 38,7 6,-11 36,21zm-772 26c-36,-55 -23,-13 -43,-50l116 64c-6,55 8,72 -33,101l-8 -77c-53,12 -35,4 -55,41 -11,-28 -6,-9 5,-33 16,-34 5,14 18,-47zm5936 -69c5,64 1,7 -14,28 -43,-52 0,-58 0,-59 14,24 11,-7 14,31zm153 76c-13,-16 -17,8 -14,-48 3,-56 9,-32 16,-41l-2 89zm916 33c169,-53 345,-80 527,-123 337,-79 288,-7 416,18 42,8 82,17 124,27 56,-75 41,-62 101,-59 -34,57 -156,96 -90,238 21,38 36,30 54,48 21,22 17,24 14,53 -99,9 -219,-1 -325,3 -59,2 -101,-2 -154,-7l-471 1c-30,1 -141,0 -165,-5 -56,-12 26,-21 -125,-31 39,-16 29,-10 54,-33 25,49 -1,36 60,38l-19 -167zm-6448 56c95,7 280,50 377,72 103,24 260,60 363,70 144,14 244,36 403,29 146,-6 292,6 431,0 168,-7 577,-101 723,-154l643 -225c-25,43 -7,26 -65,51 -330,141 -990,361 -1300,365 -140,2 -307,5 -445,-1 -335,-14 -182,-18 -402,-45 -143,-17 -637,-103 -727,-161zm49 -220c52,10 93,40 63,90l-21 -64c-47,17 -23,-20 -45,37l2 -62zm3125 -34l2 38 -2 -38zm4601 -84l-8 100c-56,-7 -45,-15 -39,-83l47 -16zm-2868 29c5,-2 40,-13 43,-14l-6 80c-34,-35 -18,-26 -79,-20 16,-55 -24,-18 42,-46zm2485 68c-48,-23 -60,-138 6,-138l-6 138zm-4042 -19c-6,-10 -25,28 -10,-53 8,-46 -1,-9 18,-38 14,48 49,49 -8,91zm4498 681c-10,-129 58,-168 109,-230l279 -388c29,-52 80,-165 128,-199 43,104 -42,166 -80,236 -22,42 -87,170 -126,203 -84,73 -9,-15 -87,97 -19,27 -48,58 -74,91 -46,58 -93,157 -149,190zm-1329 -589c41,-84 -49,-36 104,-69 66,-14 109,-25 172,-43 42,28 10,15 56,35l42 -55c76,18 20,23 78,32 -3,-62 -2,-2 -9,-54 39,-1 33,1 56,24 2,-3 5,-8 6,-10l18 -26c21,-17 20,-9 45,-12l20 38c16,24 -18,-4 22,20 26,-42 11,-20 19,-79l48 1 2 86c-154,0 -402,102 -570,111 -14,-34 1,-27 -42,-44 -2,5 -44,1 12,60l-144 38c-23,-71 8,-38 -35,-66 -22,27 -16,5 -22,71 -81,36 -183,48 -283,39 1,-78 -5,-112 81,-88 30,63 -16,35 43,75l21 -50c12,-29 -7,-9 21,-31 30,12 11,3 34,25 19,19 -13,-5 22,25 50,-71 7,-20 18,-83l119 -18 46 48zm-579 -136c8,-42 66,-40 102,-28 -16,49 -47,72 -102,28zm-6104 15c-50,-22 -44,-43 -97,-30l30 -74 4 71c42,4 39,3 63,33zm-95 180c-66,29 -461,-179 -485,-235 51,8 74,31 119,56 71,40 335,124 366,179zm6102 -125c-71,31 -478,-80 -561,-108 100,4 192,47 277,68 74,18 228,21 284,41zm-2667 -160c15,68 -8,34 -68,77 -8,72 0,64 22,121 16,41 14,90 18,135 -116,-68 2,-125 -110,-272l139 -62zm4319 128c-44,-24 5,-86 21,-113 58,-2 106,-6 110,61 -44,-58 6,-41 -71,-44 -8,88 -13,62 36,105l-56 -7c38,-99 4,-77 -4,-89 -51,16 -24,-37 -45,37 -11,37 7,43 10,49zm-211 -9c-72,-17 -19,-20 -43,-107l62 -3c-34,65 -33,1 -19,110zm-7449 -14c34,-5 11,12 33,-15 -17,-42 -22,-35 -56,-62 7,2 233,109 169,194 -16,-61 -8,-56 -33,-77l-44 -41 -42 44c-33,-30 -8,5 -27,-43zm4069 -120c76,73 19,126 200,101 141,-19 135,-22 177,-130 196,-1 316,78 437,168 87,65 156,85 223,121 0,107 2,146 23,241 -91,2 -204,-2 -296,-6 -144,-6 -78,-92 -210,-62 26,63 -5,5 44,49 24,21 19,13 22,50 -64,-24 -63,-68 -120,-102 -69,4 -35,30 -124,38 -54,5 -100,-7 -151,-2 -427,34 -276,-37 -315,-116 -17,-33 -45,-20 -63,-60 -33,-72 0,-157 9,-227l-30 -33c59,-32 102,-33 174,-29zm-462 60c-38,-11 -37,-10 -51,-48 44,4 48,4 51,48zm-4637 435c22,-53 48,-69 73,-139 19,-53 31,-100 54,-154 71,-169 123,-117 211,-211l61 42c-123,101 -133,-90 -303,349 -24,61 -36,92 -96,113zm5246 -509l2 29 -2 -29zm665 -12c55,16 73,26 103,62 -21,21 -18,5 -19,61 -17,-34 -11,-57 -29,-90 -62,25 -9,-8 -53,50l-2 -83zm-5017 55c-22,-30 -26,-16 -4,-62 25,15 31,-13 24,36 -1,9 -16,22 -20,26zm8713 -42c2,-66 20,-102 62,-124 49,60 37,106 -15,148l-47 -23zm-8786 -3c-11,-14 -34,18 -8,-93 61,37 39,66 8,93zm5028 19c-28,-32 -20,-27 -20,-89l43 25 -24 64zm-1496 -42c-9,3 -14,10 -39,14l39 -14zm2935 194c321,-69 420,-41 803,-169 409,-136 644,20 854,-31 -8,20 27,19 -27,28 -56,9 -299,-37 -388,-38 -328,-3 -1086,262 -1242,210zm-2407 -198c-4,-15 -18,-51 0,-82l0 82zm-66 87c25,84 7,27 -8,49l-24 -58c-25,-119 -69,-88 -31,-150 22,9 20,-31 34,42 4,23 1,40 8,65 4,17 19,41 22,52zm534 -36c-86,-31 -69,-207 -70,-279 26,33 18,10 25,72 22,189 85,106 45,207zm931 -117c-30,11 -34,-47 -34,44 -13,-26 -24,-39 -31,-74l79 -1 133 450c-47,-19 -46,-99 -78,-200l-53 -201c-1,-3 -6,-4 -7,-10 -1,-6 -5,-6 -8,-9zm-514 83c-45,-21 -7,-82 33,-82 -53,21 -8,27 -33,82zm-808 -37c-20,-16 -58,-84 -7,-102l7 102zm-4221 -93c34,21 36,10 14,56 -35,-20 -34,-12 -14,-56zm4310 26c3,82 -9,46 -18,58 -19,-35 -42,-86 0,-112 13,20 16,9 18,55zm-608 90c3,-50 14,-29 57,-67 39,-35 38,-41 74,-62 -14,64 -74,121 -132,128zm5313 -98c-33,-18 -26,-8 -16,-62 13,-72 16,-54 33,-70l-17 132zm-4081 -38l47 19c-44,43 -25,26 -32,104l-15 -123zm-5661 108c-64,29 -15,-22 -50,62 -57,-17 -167,-117 -219,-165 25,-91 9,-56 39,-74 9,15 10,8 14,33l5 88c72,-26 18,13 50,-66 27,10 27,12 56,22 -63,111 -2,101 0,104l38 -58c1,-6 2,-7 6,-14l117 84 10 85c44,-3 39,-11 73,-26l-21 87c-77,-6 -69,-31 -127,-53l9 -107zm5548 -29c31,-37 20,-21 19,-97l52 3 -3 116c-87,-6 -238,22 -206,-64 41,54 -17,26 55,46 39,-60 17,-50 17,-50 1,-5 2,-21 2,-24l8 -18c29,57 0,55 56,89zm-4973 -54c-27,-45 -43,-103 -40,-172l38 17c-3,17 -5,21 -8,30 -27,86 43,56 11,126zm-186 -160c53,-28 86,50 105,95 -52,-31 -52,-53 -105,-95zm-797 -38l119 67 -25 78c-48,-39 -16,-24 -35,-84 -3,0 -7,0 -8,0 -1,0 -6,1 -8,1l-46 15c-7,-17 -20,-18 3,-77zm5253 73c2,-36 -8,-27 40,-45 60,-22 172,-43 222,-4 -15,6 -229,44 -261,49zm-180 -21c13,-34 71,-33 112,-34l-21 59c-56,-24 -49,7 -91,-25zm720 -27c76,-59 373,34 441,69 52,27 123,77 168,109 55,40 140,55 172,85 -8,6 23,26 -41,6l-137 -73c-417,-268 -452,-140 -604,-196zm-166 -93c79,-10 84,36 50,81l-58 -31 8 -50zm-4821 -17l81 76 -74 -12 -7 -64zm6863 447c-93,-3 -43,-380 -24,-471 13,-64 7,-34 40,-46l-16 517zm-7005 -567c55,30 55,52 107,81 -27,57 -19,-28 -13,118 -49,-29 -140,-112 -190,-152l41 -96c-4,76 -15,69 12,118 63,-37 13,-15 42,-69zm6134 527c-36,-97 10,-265 21,-381 14,-145 -13,-316 0,-454 103,-2 77,74 77,177 -1,171 -31,533 -98,659zm-6991 -494c-44,19 -25,27 -60,61 -54,-28 -63,-49 -115,-71 5,-29 16,-71 32,-94l43 118c44,-14 21,-14 54,-57 147,65 122,106 123,172 102,-19 -10,-45 77,-22 2,39 -27,80 -27,79 -1,-2 -4,5 -6,7 -49,-26 -72,-55 -125,-80 10,-59 22,-55 4,-113zm738 -21c-49,-17 -30,-86 -6,-123 21,31 6,74 6,123zm7444 -79c-26,109 -44,630 -60,667 -57,-50 0,-546 17,-666l43 -1zm-8393 45c-65,-28 -49,-53 -48,-127 75,30 49,33 48,127zm888 -129c1,-7 5,-8 4,-11l-2 118c-43,-15 -74,-48 -94,-74l24 -30c1,4 2,9 3,11 1,2 2,8 3,11 21,47 2,23 41,39l21 -63zm4619 -84c46,-3 51,1 64,44l32 315 -67 14c5,-99 -51,-312 -29,-374zm-5633 124c-20,-50 -11,-105 39,-87 -4,21 -5,32 -13,57 -17,52 9,20 -26,30zm-93 -143c0,0 8,-22 10,-26 57,26 34,38 32,112 -33,0 -215,-125 -248,-150 36,-32 12,-38 35,-86 95,33 -33,86 69,124 2,-4 4,-8 5,-11 1,-3 3,-8 5,-11 1,-3 2,-8 4,-11 1,-3 2,-8 3,-11 12,-33 -3,-5 11,-23 33,42 11,18 15,62 7,70 1,39 26,60 41,-21 9,6 32,-29zm941 -35c-40,29 -23,16 -30,88l-52 -30c15,-39 6,-7 17,-59 -93,-5 -84,13 -136,-40 39,-85 -7,-98 -7,-98 -56,35 3,44 -56,58 -17,-20 -14,40 -9,-20 3,-42 15,0 21,-75 83,24 322,200 378,281l-70 -39 -19 76c-82,-38 38,-54 -37,-141zm-1222 -99c40,-31 26,-8 28,-75 50,24 24,78 0,113 -62,-24 -141,-92 -191,-129 1,-43 -1,-62 24,-92 49,46 -2,57 37,120 71,-26 6,7 45,-47 3,-4 9,-37 32,-11 39,45 -27,46 25,121zm917 -26c-21,-16 -29,19 -28,-51 0,-89 10,-36 28,-53 19,49 6,45 0,104zm-1163 -156c10,-61 19,-38 24,-43 17,38 17,55 0,89 -19,-8 -34,16 -24,-46zm1094 104c-28,-25 -18,1 -26,-41 0,-2 5,-42 6,-48 48,9 26,38 20,89zm-78 -50c-39,-26 -50,-62 -6,-85 23,36 12,40 6,85zm-812 -75c43,28 71,47 115,69l760 502c62,56 699,474 724,527 -44,22 -24,20 -63,-7l-336 -248c-39,-27 -76,-42 -113,-68 -35,-25 -58,-52 -90,-76l-402 -279c-40,-29 -53,-41 -94,-72 -16,-12 -36,-21 -52,-32 -21,-14 -29,-24 -45,-38l-404 -279zm-278 -76l24 106 -44 -19 20 -87zm912 72c1,-1 -11,-59 67,-14 39,23 18,6 17,40 -46,-16 -34,-22 -83,-27zm-994 -29c-28,-34 -16,-37 -10,-89 14,34 28,53 10,89zm2819 1446c-39,-8 -55,-19 -92,-30 -36,-10 -62,-9 -103,-22 -340,-113 -517,-254 -803,-446l-1183 -817c-34,-23 -283,-167 -301,-194 46,-15 176,-25 232,-31 81,-9 119,36 193,62l320 180c181,107 106,79 227,163 36,25 42,19 81,44 159,102 279,225 417,347 44,39 95,69 140,110l262 238c121,114 455,326 612,398zm-2894 -1486c-40,-17 -57,-50 -3,-83l3 83zm-965 -24c34,-24 62,-14 109,-12l705 -82c72,21 7,-2 36,25 -86,56 -302,40 -418,58 -85,14 -375,52 -432,11zm1985 -111l341 157 437 314c38,32 125,50 278,222 25,29 99,76 133,104 52,42 80,78 130,119l274 226c222,206 128,92 277,209l457 265c-92,-14 -247,-120 -321,-167 -29,-19 -55,-29 -79,-47 -43,-33 -25,-23 -77,-47l-292 -208c-38,-31 -27,-35 -58,-67 -20,-20 -44,-40 -66,-60 -48,-43 -93,-62 -142,-107 -41,-38 -85,-71 -130,-106l-401 -349 -608 -379c-61,-44 -78,-50 -154,-79zm0 0c-53,-16 -97,-32 -132,-61 37,0 101,44 132,61zm-585 207c-120,-90 -516,-276 -664,-325 83,-4 193,62 267,100 28,14 57,23 87,37l242 133c47,24 11,26 68,54zm384 -263c-22,59 -52,45 -119,50 -561,46 -316,89 -653,-65 -72,-33 -146,-69 -220,-94l400 81c-65,29 -51,-20 -88,49 121,21 372,-28 504,-33 89,-3 128,-21 175,11zm-1376 -65c-54,33 -116,-4 -246,-46l10 -47c1,-5 5,-5 13,-10l14 64c81,-20 16,7 63,-44 73,7 247,40 298,112l21 29c82,-51 35,-15 114,6l50 15c-48,28 -78,17 -122,0 -106,57 -149,-10 -194,-91l-20 13zm1289 -4c-41,19 -125,-53 -176,-52l176 52zm-1625 -118c51,4 56,15 37,71l-35 -4 -2 -67zm993 49c6,-3 -24,-27 54,-11 21,4 31,16 41,24 -31,18 -61,4 -95,-13zm-1035 5c-55,-1 -45,-14 -41,-70l47 2 -6 68zm945 -40c-29,14 -2,8 -24,12 -52,10 -3,4 -22,-11l46 -1zm-167 -27l36 6c-1,1 28,55 -36,-6zm-102 21c-52,-2 -21,-10 -32,-17 21,-18 48,-9 71,0 -20,17 32,19 -39,16zm-1688 -36c-15,-42 -22,-47 6,-82 31,41 14,54 -6,82zm1692 -54c124,-7 170,23 265,32l-265 -32zm-1006 61c47,-18 13,9 42,-41l101 9 24 68 28 -57c72,13 42,56 33,82 -57,4 -120,-18 -172,-24l-593 -29c3,-35 10,-34 18,-82 -78,13 -50,17 -91,67 -25,-35 8,-64 28,-86l83 3c30,54 -4,39 42,61 32,-54 -7,-29 42,-58 56,35 7,11 42,73 54,-24 23,-20 59,-68l179 16c4,75 -10,33 26,57 14,-8 24,-4 26,-41 0,-3 0,-4 1,-7l60 2 23 54zm115 -107c-73,7 -187,-18 -265,-26 -70,-7 -186,-15 -247,-24 98,-5 504,54 512,50zm-791 -68l72 14 -72 -14zm9080 954c-52,-23 -39,-110 -85,-276l-75 -273c-84,-299 50,-549 50,-607 -180,-14 -332,221 -314,-135 8,25 11,53 19,81 53,175 222,-1 279,9 32,19 52,34 76,54 -60,14 -51,28 -75,93 -32,83 -47,385 -28,494 10,56 19,98 37,143 31,78 113,348 116,417zm41 -1131c-45,-62 -49,-78 -126,-107 -76,-28 -109,-14 -174,20 -163,83 -47,-212 -80,-292 -67,-16 -53,-12 -83,32 -71,107 -54,148 -63,269 -14,185 74,205 238,201 -87,521 156,830 130,1352 -80,34 -82,-10 -102,90 -132,16 -161,30 -250,-33 -11,-107 -16,-336 -61,-416 -74,-38 -170,-11 -220,28 -2,91 56,376 49,414l-78 157c-12,19 -94,86 -113,105 -158,-9 -105,6 -210,85 -90,67 -124,42 -117,188l-527 195c-93,30 -170,62 -273,89 -102,27 -194,45 -288,72 -491,141 -1278,-132 -1690,-393 -301,-190 -362,-230 -621,-462 -26,-24 -71,-55 -103,-78 -45,-33 -60,-54 -95,-85 -37,-32 -62,-59 -98,-83 -34,-23 -76,-56 -101,-79 -38,-36 -66,-50 -98,-83 -170,-175 -624,-484 -864,-581 -63,-25 -63,-40 -119,-61 -181,-67 -333,-139 -537,-186 -178,-42 -428,-103 -603,-123 -169,-19 -357,-24 -530,-14 -242,15 -16,70 -460,-22 -208,-43 -424,-57 -638,-73 -258,-20 -148,-10 -334,15 -159,21 -224,-37 -333,-28 -309,25 -262,290 67,252 58,-7 120,-34 143,-34 39,0 28,14 82,11 44,-2 6,-10 62,-9l17 83c154,29 255,11 408,22 302,21 840,44 1090,179l-592 52c-6,11 -10,7 -12,33 -5,76 68,107 131,122 96,23 444,-1 538,-38 69,-27 185,-19 262,-16 164,6 437,200 569,293 87,61 163,129 255,177 148,77 278,198 413,295l319 250c72,51 101,59 164,114l243 187c29,19 52,37 72,61 -27,132 -80,309 -203,329 -84,-46 -162,-150 -314,-142 -128,270 49,697 154,890 64,118 159,218 250,306 118,114 167,119 296,191 49,27 15,9 33,28 -336,-6 -715,86 -1041,138 -173,27 -327,64 -516,65 -358,2 -722,28 -1067,112 -111,27 -176,0 -248,18 -74,18 -33,19 -129,20 -59,1 -62,15 -110,29 -207,61 -553,45 -791,85l-117 35c-60,18 -62,-12 -103,34 88,66 1367,37 1607,63 95,10 214,0 314,14 178,25 399,-20 631,11 176,24 478,18 667,17 111,-1 222,-20 319,-17 109,3 212,22 320,10 221,-24 822,25 986,11 117,-10 176,-19 264,41 72,-12 131,-28 223,-39 119,-15 115,-13 236,-6 56,3 83,-14 139,-14 199,0 396,49 597,52 245,4 493,-9 736,-36 128,-14 349,31 486,35 164,4 336,-7 500,-13 398,-13 568,31 986,14l514 -6c161,8 350,15 514,7 138,-7 611,-28 736,-17 245,23 488,7 737,4 398,-6 794,-4 1189,57 48,7 66,12 117,11 74,-2 123,5 115,-57 -8,-57 -136,-87 -179,-119 -314,-229 -217,-115 -438,-216 -57,-26 -167,-66 -218,-99 5,-85 78,-102 116,-160l90 -168c22,52 14,85 89,103 54,13 108,-11 145,-41 93,-74 90,-150 11,-261 4,-108 30,-109 79,-162 122,-133 63,-153 250,-221 138,-50 86,-125 138,-211l305 -491c22,157 138,192 259,113 56,-36 66,-99 64,-167 -2,-81 -44,-98 -87,-138 27,-111 -15,-180 78,-253 66,-51 58,-237 17,-291 -59,0 -150,85 -185,126l-66 97c-64,89 -123,218 -179,293 -94,126 -287,446 -396,520 -12,-161 1,-159 64,-257 65,-101 49,-165 -40,-211 38,-73 -1,-100 27,-164 28,-64 59,-59 12,-154 -57,-73 -204,-8 -370,-20 51,-119 -70,-46 -111,-31 -42,16 -98,4 -144,3 -283,-6 -515,154 -802,156 -39,-169 57,-650 30,-707 -26,-36 -105,-27 -153,-18 -41,171 -48,395 -52,577 -1,33 -2,65 -2,98 0,25 6,67 -11,82 -115,50 -42,-500 -51,-586 -56,-46 -96,-73 -178,-43 -36,66 -42,493 -30,585 -90,17 -84,8 -112,84 -127,21 -442,-57 -538,-97 7,-64 43,-140 54,-233 22,-178 35,-361 31,-543 -3,-159 -201,-225 -251,-132 -33,131 35,522 -33,670 -20,25 -68,23 -97,30l-74 40c-1,-3 -6,4 -10,5 -100,-39 -188,-97 -283,-151 -64,-37 -54,-41 -149,-60 -56,-11 -115,-20 -172,-35 -29,-45 -37,-57 -69,-90 -3,-115 2,-278 -31,-378 -19,-56 -26,-93 -42,-152 -13,-48 -41,-98 -54,-141 -70,-233 -123,-420 -50,-677 86,18 128,76 215,-23 43,-48 62,-155 51,-226 -45,-14 -91,-38 -112,15 -23,59 17,62 -40,105z"/> <path class="fil1" d="M7286 10417c66,-4 91,-9 121,47 -29,-2 -41,1 -70,-8 -39,-11 -28,-9 -51,-39zm-377 -75c63,-2 175,21 218,48 -36,21 -180,8 -218,-48zm-2306 -35c-41,23 -97,2 -134,-27 56,1 95,4 134,27zm2397 -56c29,-12 9,-16 37,15l-37 -15zm-105 -97c25,-13 -45,-32 53,-8 87,21 107,32 122,67 -68,-3 -136,-15 -175,-59zm-132 -55c-77,-9 -30,-3 -47,-28 58,12 25,-9 47,28zm-2115 67c-99,4 -356,-33 -412,-79 74,-7 130,20 208,38 60,13 163,10 204,41zm2009 -129c-19,16 40,54 -100,2 -53,-20 -44,-8 -75,-38 69,0 128,19 175,36zm-175 -120c5,-3 -15,-31 53,-12 53,15 22,15 33,31l-86 -20zm-2062 -41c25,-16 34,-13 76,-8 23,2 26,0 45,11 40,23 0,-6 18,28l-139 -31zm69 -83c34,-22 43,-14 79,-2 -30,20 40,14 -42,15 -19,0 -29,-9 -36,-12zm1780 -63c-402,-161 -614,-150 -1036,-161 -247,-6 -492,45 -750,44 -242,-1 -477,-34 -687,-119 -112,-46 -197,-60 -287,-116 -66,-41 -147,-150 -229,-149 -68,139 17,363 44,512 25,137 172,297 233,385l-22 29c0,-1 -2,3 -2,5 43,36 15,0 37,48 143,15 152,139 248,152 75,10 226,76 289,113 56,33 78,64 130,81l455 126c358,65 741,107 1111,102 426,-6 238,24 347,39 1,-2 1,-5 1,-6l13 -36c25,6 3,-4 31,10 6,3 15,16 16,13 1,-3 5,5 8,8l197 -33c-17,-14 -5,0 -17,-18 62,-15 74,1 133,-15 147,-40 1150,-163 1243,-160 109,4 344,76 411,28 -46,-20 -96,-11 -162,-40l-430 -168c-114,-48 -168,-78 -264,-138 -37,-23 -80,-48 -124,-70 -38,-19 -29,-12 -62,-36 -154,-111 -291,-169 -456,-252l-419 -179z"/> <path class="fil1" d="M11494 11113c13,-9 -22,-28 30,-15 45,11 11,-4 29,32 -56,25 -32,21 -59,-17zm734 -14c24,-12 -40,-30 50,-5 -8,9 21,41 -50,5zm-564 -28c2,-1 3,-44 50,14 -2,1 -1,25 -36,4l-14 -17zm-560 -14c0,0 1,-28 41,-9 47,22 18,1 27,56 -67,-8 -53,12 -68,-47zm-4773 28c16,-12 -4,-8 25,-11 2,0 7,7 9,4 1,-4 6,5 9,7l-34 5c-1,-3 -5,-3 -8,-5zm4868 -14c1,0 -15,-45 44,-9 24,15 15,21 25,46 -25,-2 -22,6 -44,-7 -31,-19 -6,-1 -25,-30zm-202 -26c5,85 -22,56 -48,47 -2,-3 -5,-8 -5,-10l-3 -42 57 5zm-389 -17c79,34 74,-10 152,-2 30,3 41,15 63,25 58,27 28,-5 46,35l-296 20 35 -77zm-3964 44c65,-40 45,-6 52,0 -25,21 10,10 -31,14 -64,6 23,20 -21,-14zm-690 0c17,-10 -2,-7 25,-9l17 9c-19,15 -15,22 -42,0zm3445 -49c92,43 204,-43 258,73l-327 -20c-27,46 7,18 -46,41l-69 -60c11,-41 24,-64 38,-91 163,4 78,25 145,56zm-2849 10c62,23 28,3 43,45l-118 1 2 -63c29,5 44,6 72,17zm-1011 -1c49,9 31,-10 39,37 -52,-5 -31,10 -39,-37zm-1639 42c-48,5 -17,-6 -29,-15 8,-7 19,-74 56,0 -17,14 15,11 -27,15zm-1221 -15c31,-18 69,-21 109,-20 73,2 63,3 76,56 -57,13 -52,2 -102,-9 -16,-4 -36,-4 -48,-7 -48,-12 -23,-9 -35,-20zm5355 6c4,-54 6,-54 60,-57l19 77 -78 -20zm-4360 -20c-36,32 -84,40 -108,-14 50,-33 83,-29 108,14zm3692 -59c9,9 55,-5 5,58 -9,-14 -8,1 -12,-27 -6,-41 -4,4 6,-31zm-1599 -4c52,-8 59,4 82,36 -17,50 4,14 -35,56 -33,36 12,23 -53,23l6 -115zm-694 49c14,-9 -19,-26 60,-14 0,0 36,13 42,15 62,14 270,-55 289,52 -56,9 -71,-9 -205,-7 -36,1 -74,-2 -110,-7 -6,-1 -41,-6 -44,-8 -62,-26 -7,5 -32,-31zm-2142 -22c65,-8 80,4 89,61 -57,9 -86,-7 -89,-61zm7589 32c-34,-8 -25,-2 -34,-34 45,8 28,-10 34,34zm-2144 35c-39,-2 -67,-4 -102,-16 -59,-20 -45,-12 -58,-58 79,-3 143,-2 160,75zm-5935 -37c-63,0 -44,-16 -57,-40 70,-45 110,0 116,4 -14,24 1,36 -59,35zm-589 -22c29,-24 -14,-10 31,-15l21 15c-22,16 3,10 -31,13 -65,6 26,22 -21,-13zm5185 -72c76,4 28,30 135,62 53,16 95,49 100,111l-109 -36c-20,13 -17,1 -27,29 -95,4 -243,-45 -290,-95 65,-32 177,35 245,40 -46,-35 -67,-37 -53,-111zm-2975 72c36,-61 210,-92 222,-3l-176 20c-74,2 -26,-3 -46,-17zm-1515 14c15,-31 -2,-12 29,-30 86,-51 51,-52 93,-45l-8 63c-100,57 -113,13 -114,12zm8223 -15c-29,-11 -17,-1 -36,-24 59,8 24,-8 36,24zm-381 -25c-15,-56 21,-33 23,-35 47,26 45,5 24,69 -48,-14 -34,16 -47,-34zm-4412 -2c23,-17 -6,-9 30,-13 68,-6 -12,-11 20,13 -23,18 6,10 -30,13 -69,6 13,12 -20,-13zm-663 -6c-3,8 12,33 -44,39 -83,8 -32,0 -48,-33 16,-11 -10,-48 92,-6zm-603 48c50,-36 21,-11 82,-23 86,-16 126,-116 194,-19 -38,28 -47,18 -133,55 -136,59 -138,-5 -143,-13zm-1460 -49c141,10 126,1 148,49 -40,27 -133,20 -181,11 -22,-36 -34,-84 -37,-140 93,26 24,13 70,80zm-1186 22c20,-29 -7,-22 111,-42 124,-21 103,17 109,28 -42,29 -182,46 -221,14zm9682 30c-52,-17 -8,8 -45,-26 -27,-24 -20,-14 -34,-54l75 14 4 65zm-1524 -109c65,11 88,21 67,81l-66 6 0 -87zm-2812 162c5,-80 22,-42 72,-94 32,-33 28,-64 67,-89 11,15 15,-22 20,44 4,50 -62,133 -159,138zm-5742 -90c-52,-4 -26,6 -45,-42 68,31 29,-11 45,42zm8239 -27c39,-10 71,9 121,-4 66,-18 17,-34 112,-38 -7,78 -22,71 -105,91 -83,20 -73,5 -105,71 -126,13 -89,-6 -108,-31 30,-35 -3,-19 64,-27 3,-65 -9,-31 22,-63zm-1607 -8c-39,20 -33,15 -55,-14 38,-22 31,-26 55,14zm-198 0c-38,22 -45,24 -68,-14 7,-4 -19,-22 41,-12 36,6 19,11 27,26zm-1914 71c34,-38 40,-29 70,-57 22,-21 26,-32 52,-55 75,-3 120,25 144,91l-113 -32c-36,83 -93,134 -187,115 -52,-10 -41,-9 -50,-55l84 -6zm-610 -71c42,-20 47,-23 64,14 -55,32 -49,12 -64,-14zm-804 -14c0,38 -5,18 -17,36 -21,-12 -42,17 -33,-48 6,-43 17,-21 33,-28 5,7 17,-1 17,40zm-2042 -11c43,8 28,-12 32,32 -42,-2 -25,9 -32,-32zm5020 122c16,-66 19,-28 163,-134 63,-46 50,-11 55,-9 22,63 -32,67 -84,89 20,50 10,44 2,63 -45,11 -94,10 -136,-9zm-2302 -152c25,44 18,21 22,81l-102 -40c10,-36 40,-39 80,-41zm-2588 27c8,-5 9,-27 58,-12 26,8 21,15 29,40 -49,19 -68,30 -87,-27zm8918 170c3,-85 39,-70 69,-128 -34,-24 -42,-16 -47,-66 46,-4 75,7 109,22 1,78 -11,30 -31,104 83,4 142,-38 167,36l-267 32zm-7203 -114c-125,-32 -199,-7 -151,-150l11 -20c63,14 48,14 65,72 83,10 157,22 177,97 -26,17 -11,19 -55,14 -2,0 -43,-12 -47,-13zm-998 -48l167 15c44,20 16,8 33,32 -20,14 15,21 -105,16 -138,-5 -184,-29 -160,-133 107,17 25,-11 65,70zm-459 9c-57,-6 -26,7 -48,-38 61,15 27,-20 48,38zm-750 1c-48,-5 -22,-12 -34,-32 19,-14 -31,-21 45,-18 50,2 18,8 32,18 -6,12 12,38 -44,32zm4389 9c14,-41 16,-28 53,-58 36,-29 14,-39 70,-11 -8,55 -63,96 -123,69zm-2927 -37c113,-6 182,-90 252,-18 -31,35 -85,38 -134,54 -15,5 -46,15 -66,14 -54,-5 -34,-7 -52,-49zm-2078 -4c13,-9 9,-10 32,-17 1,0 33,-5 36,-6 59,-8 148,-4 195,27 -1,40 -6,59 -37,86 -46,-32 -29,-23 -41,-75 -86,2 -139,60 -185,-15zm8578 -36c45,7 45,11 55,53 -45,-9 -53,-4 -55,-53zm-1242 8c11,-8 -7,-23 101,-16 45,3 56,4 84,30 -2,46 -24,75 -77,107 -25,16 -17,3 -47,22 -32,20 -24,33 -67,58 -43,25 -67,22 -118,18 26,-66 202,-119 231,-185 -161,-3 -90,-14 -107,-35zm-2523 -10c51,-10 135,-3 161,24 -29,49 -101,46 -174,62l13 -86zm-3288 24l21 -13c72,-19 -13,-13 22,13 -4,2 -8,7 -11,8l-22 0c-2,-4 -7,-6 -11,-8zm4385 71l-22 -78c-1,0 7,15 -46,1 -6,-51 -7,-44 23,-81 88,6 7,-6 63,23 110,57 136,33 157,97l-138 23c9,63 -1,74 -39,97 17,41 7,8 21,62l-59 -11c-28,-5 -13,-6 -46,-6 -15,0 -45,4 -57,2 -40,-7 -15,-4 -36,-20l178 -109zm-273 -144c68,5 61,-2 69,66 -73,-7 -61,10 -69,-66zm-216 150c-40,-30 -27,-14 -22,-77 -58,-36 -62,-12 -41,-84 32,7 42,24 64,43 63,-32 84,-33 100,41 13,62 33,62 35,122 -67,5 -87,-47 -79,-104 -3,3 -6,7 -8,10 -2,2 -5,7 -7,10 -2,3 -9,17 -12,20 -18,23 11,4 -29,20zm-2960 -181c58,2 59,28 65,96l-67 -9 2 -87zm4410 118c13,61 -2,59 50,68 2,-3 6,-10 6,-8 1,2 5,-7 5,-9l49 -141 91 19c14,105 -45,113 -92,155l5 71 55 7c17,-80 51,-129 182,-124 7,24 16,54 15,98l-143 24 27 47 -131 5 -30 -46c-86,32 -50,-7 -165,-10 -39,51 -44,39 -109,34l-5 -75c-71,-15 -58,-17 -57,-99 90,14 86,81 207,60 -2,-118 -52,5 -62,-106 59,-25 25,10 71,-39 37,-39 1,-32 71,-21 -3,99 -13,36 -41,88zm-4774 -38c13,-65 10,-63 62,-76 -2,81 12,75 -62,76zm5016 -90c48,0 53,4 87,17 2,66 -19,96 -86,102l-1 -119zm-1547 37c1,0 -4,-15 69,4 -7,48 -4,49 -34,87 -62,-7 -77,-30 -36,-91zm-3827 61c-51,-6 -62,-18 -83,-53 19,-10 -26,-17 34,-14 53,3 2,-7 23,14l26 53zm6329 95c-2,-61 11,-100 36,-154 2,-4 9,-18 10,-20 1,-3 6,-4 7,-10 1,-6 5,-7 8,-10 59,6 42,-2 76,34 -21,48 16,12 -51,48 105,32 81,-97 200,-56 -13,74 -132,120 -229,114 -14,56 -10,40 -57,56zm-115 -2c-2,-192 -16,-74 -35,-148 -14,-54 9,-44 9,-45 0,0 12,-23 69,-3 31,11 25,12 48,37 -8,47 -10,42 -37,72l22 44c1,-2 3,6 5,9l-46 88c-26,20 -293,8 -315,-114 64,9 5,-2 48,16l140 37 6 -71c-70,-12 -43,-3 -67,-39 2,-1 -4,-49 60,-9 22,14 34,87 92,127zm-1622 -181c55,7 105,12 114,73 -90,19 -102,6 -114,-73zm-5027 21l35 -6c1,-3 5,4 7,6 -45,34 -32,7 -42,0zm1044 -14c13,-11 10,-30 49,0 -2,1 -34,20 -39,6 -2,-4 -6,-4 -9,-6zm-499 44c-5,-110 14,-78 98,-82 88,-4 45,-75 121,-17 -14,33 -20,26 -38,42 19,49 2,41 -14,84l35 64c-65,-14 -76,-4 -89,-68 -58,6 -74,-2 -113,-22zm416 -114c14,-9 -9,-38 48,0 -23,17 6,9 -29,13 -55,5 8,9 -19,-13zm-2574 278c1,-35 25,-32 61,-34l28 39c78,3 92,3 65,69 115,-23 371,6 513,1 -119,-3 -77,-2 -94,-34 39,-24 76,-23 128,-16 75,10 36,15 82,50l903 18c94,-5 179,-22 279,-21 169,2 413,32 577,15 194,-20 395,17 589,3 -22,-12 -28,-15 -63,-27l-70 -36c14,-9 4,-11 35,-18 102,-23 138,51 142,58l320 29c-8,-45 -13,-79 39,-86 64,-8 86,41 89,45 -49,41 -48,1 -86,42 205,13 600,-15 886,-1 88,4 173,22 263,25 197,5 400,-1 598,1 192,1 383,13 569,14 245,0 468,-5 713,-1l23 -58c90,7 48,16 102,55 54,18 1685,-2 1873,-10 7,-52 9,-46 70,-63 94,-27 133,-51 228,-14 19,7 60,47 73,62 265,22 533,31 806,29 199,7 509,-13 695,-6l692 59c-18,-17 -106,-74 -121,-80 -93,-40 -39,-48 -109,-84 -55,-29 -100,-25 -151,-43 -43,-16 -83,-44 -131,-63 -333,-133 -360,-7 -488,-53 -73,-26 -91,-4 -167,5l-19 49c-56,9 -88,32 -145,32 -64,0 -83,-19 -154,-14l-27 29c-48,2 -72,-13 -139,-17 -77,-4 -57,-20 -111,-42 -38,18 -23,55 -34,28 -1,-3 -5,6 -8,13l-145 -27c-60,-158 -32,-62 -408,-145 -85,-19 -261,-60 -336,-65 -552,-39 -1097,60 -1568,43 -121,-4 -250,-30 -376,-38 -339,-22 -140,54 -319,21 -52,46 -85,28 -167,26 -61,-2 -104,14 -166,18 -166,11 -106,-25 -270,19 -53,14 -318,9 -410,18 -380,36 -586,101 -1042,58l-540 -32c-104,-8 -52,9 -141,23 -73,-43 -87,-44 -181,-43 -68,107 -75,0 -120,-24 -79,-10 -206,-41 -283,-64 -50,-15 -71,-25 -128,-38 -82,-18 -59,-11 -94,-72 -91,-22 -224,-13 -334,-12 -149,2 -26,23 -285,47 -274,26 -210,57 -406,92 -58,11 -99,3 -157,7 -61,41 -72,42 -156,55 -261,40 -249,-5 -351,13 -153,28 -133,-10 -200,32 -42,26 -30,18 -71,18 -11,-18 -17,20 -14,-50 -52,6 -100,11 -153,8 -77,-5 -652,97 -792,108 -67,5 -47,21 -102,36 -40,11 -72,3 -118,9 -66,9 -145,32 -211,37 -143,10 -332,-28 -459,29 169,0 503,14 656,-17l27 -42c117,-3 42,50 181,49l28 -66 74 3c13,42 15,23 -2,65 50,2 103,3 152,7 17,2 53,8 68,8 103,-1 32,1 58,-22 -23,-58 10,1 -64,-42z"/> <path class="fil1" d="M6260 9503c11,7 18,-13 25,28 7,47 -10,36 -11,38 -33,-19 -32,-24 -14,-67zm-97 4c16,29 19,-31 14,35 -5,59 5,2 -14,30 -2,-2 -55,0 0,-65zm228 -22c17,41 24,46 -6,83 -16,-9 -31,1 -32,-39 -1,-60 12,-33 38,-44zm-353 30c14,18 19,-27 15,28 -4,53 3,5 -14,26 -14,-29 -25,-21 -1,-54zm639 -22l13 23c-3,36 2,10 -13,29 -11,-13 -14,28 -11,-17l4 -22c1,-3 3,-9 7,-13zm-97 -4c20,33 22,20 0,49 -42,-54 -5,-45 0,-49zm181 -29c27,19 31,4 14,51 -23,-9 -12,19 -22,-14 -17,-55 3,-29 8,-37zm-281 26c54,19 19,-3 38,41 -45,-18 -6,15 -25,-13 -2,-3 -9,-24 -12,-27zm392 -53c46,75 4,63 0,68 -4,-5 -16,11 -18,-28 -4,-83 -5,-16 18,-40zm279 -58c55,9 36,-17 38,41 -63,-20 -22,-19 -38,-41zm65 -11c17,-13 44,-53 96,0 -5,4 8,16 -38,21 -86,9 -49,-13 -59,-21zm299 -139c14,-10 10,-10 35,-22 4,-2 17,-6 21,-7 84,-34 68,-44 159,-50 -31,88 -17,43 -99,77 -15,6 -33,21 -48,23 -80,12 -60,-15 -68,-21zm-73 39l-55 -15c22,35 53,51 66,81l-88 16 -16 -70c-77,-7 -496,141 -641,163 -416,62 -482,13 -789,43l24 73c94,50 404,65 531,46l501 -98 -14 -101c113,53 -31,80 108,92 -5,-73 -30,-57 -1,-102 14,24 4,9 17,36l24 40 441 -133c-19,-23 -5,-4 -17,-16l-25 -29 55 -13c90,-28 22,-19 101,-7 81,-163 156,2 233,-99 -32,-22 -29,-9 -59,-20 -128,-46 33,-64 -241,24l-149 83c-1,1 -4,5 -6,7z"/> <path class="fil1" d="M11066 9306c38,29 78,31 132,36 24,90 119,170 157,260 66,156 29,64 73,134 76,119 27,589 -18,734 -24,77 -50,44 -51,145l-52 12 -52 133c-16,32 -28,25 -46,51 -17,24 -13,33 -23,57 -55,-7 -46,-17 -85,-11 40,112 134,25 140,16 33,-47 -13,-35 53,-101 110,-109 116,-72 136,-166 203,-924 70,-674 -13,-1030 -21,-88 -79,-133 -129,-188 -56,-61 -36,-17 -102,-49 -52,-25 -25,-36 -122,-34z"/> <path class="fil1" d="M4854 9195c89,58 584,144 727,161 220,27 67,31 402,45 138,6 305,2 445,1 310,-4 970,-224 1300,-365 58,-25 41,-7 65,-51l-643 225c-146,54 -555,147 -723,154 -139,6 -285,-6 -431,0 -159,6 -259,-16 -403,-29 -102,-10 -260,-46 -363,-70 -97,-22 -282,-65 -377,-72z"/> <path class="fil0" d="M8627 10918c27,-52 38,11 41,-88 -70,-11 -34,-18 -71,21 -46,49 -12,14 -71,39 10,112 60,-11 62,106 -121,21 -118,-47 -207,-60 -1,82 -13,83 57,99l5 75c66,5 70,18 109,-34 114,2 79,41 165,10l30 46 131 -5 -27 -47 143 -24c2,-44 -8,-74 -15,-98 -132,-5 -166,43 -182,124l-55 -7 -5 -71c48,-42 107,-49 92,-155l-91 -19 -49 141c-1,2 -5,11 -5,9 -1,-2 -4,5 -6,8 -52,-9 -37,-8 -50,-68z"/> <path class="fil1" d="M9858 9875c46,24 33,-5 33,75 -29,-14 -25,-1 -38,-27 -16,-30 -7,-30 5,-48zm34 -43c66,17 69,30 68,115 -59,-19 -70,-37 -68,-115zm77 -56l39 78c8,66 0,20 -11,40 0,0 -60,-6 -55,-73 0,-3 0,-8 1,-11l27 -34zm395 -35c-65,-21 -59,-36 -65,-105 66,14 68,21 65,105zm-182 -163l54 -21c27,44 65,100 78,161 11,52 -1,48 -11,64l-109 -83c5,103 40,20 62,128 -81,-14 -53,-31 -119,-46 -27,53 -16,21 -47,53 -2,2 -5,5 -6,7 -6,7 -17,48 -42,20 -35,-39 -38,-84 -78,-162l-32 81 -109 83c-3,60 22,100 51,138l549 -212 -26 -51 41 -14 -67 -41 11 -64c-76,-36 -147,-107 -224,-99l26 58z"/> <path class="fil1" d="M10989 9085c22,-14 19,-19 51,-8 -5,30 17,29 -18,33 -44,5 -22,-10 -33,-26zm533 -128c48,11 41,-1 38,36 -1,0 7,45 -28,1 -40,-50 3,6 -10,-38zm83 3c40,-35 -58,-23 20,-15 36,4 12,0 29,15l-19 12c-40,-3 0,7 -29,-12zm379 -54c-40,-24 -6,5 -22,-20l-20 -38c-24,3 -24,-6 -45,12l-18 26c-2,2 -4,7 -6,10 -23,-23 -17,-25 -56,-24 7,52 6,-8 9,54 -58,-9 -2,-14 -78,-32l-42 55c-45,-20 -13,-7 -56,-35 -62,17 -106,29 -172,43 -153,33 -63,-15 -104,69l-46 -48 -119 18c-11,63 32,11 -18,83 -35,-30 -3,-6 -22,-25 -23,-23 -3,-13 -34,-25 -28,22 -8,1 -21,31l-21 50c-59,-40 -13,-12 -43,-75 -86,-23 -80,11 -81,88 100,8 202,-3 283,-39 6,-65 0,-43 22,-71 43,28 11,-6 35,66l144 -38c-57,-59 -15,-54 -12,-60 42,17 27,10 42,44 168,-9 416,-111 570,-111l-2 -86 -48 -1c-9,59 6,37 -19,79z"/> <path class="fil1" d="M12703 9616c56,-33 103,-132 149,-190 27,-34 55,-64 74,-91 78,-112 3,-25 87,-97 38,-33 103,-162 126,-203 38,-70 123,-132 80,-236 -48,35 -99,147 -128,199l-279 388c-51,62 -119,101 -109,230z"/> <path class="fil1" d="M690 7200c-30,-44 -12,-42 -12,-43 19,3 32,-8 37,16 19,83 -10,-24 -25,28zm-307 -92c56,2 15,6 31,18 -65,70 -73,0 -73,0 14,-11 -26,-20 43,-18zm-374 53c41,-50 14,-54 91,-67 -8,48 -15,47 -18,82l593 29c52,6 115,28 172,24 9,-26 39,-69 -33,-82l-28 57 -24 -68 -101 -9c-29,49 6,23 -42,41l-23 -54 -60 -2c-1,3 -1,5 -1,7 -2,37 -12,33 -26,41 -35,-25 -22,18 -26,-57l-179 -16c-36,47 -5,44 -59,68 -34,-62 15,-38 -42,-73 -49,30 -10,5 -42,58 -46,-23 -11,-8 -42,-61l-83 -3c-20,22 -53,52 -28,86z"/> <path class="fil1" d="M2314 7640l404 279c16,13 24,23 45,38 16,11 36,19 52,32 42,31 55,43 94,72l402 279c33,24 56,52 90,76 37,26 74,41 113,68l336 248c38,27 19,29 63,7 -25,-52 -663,-470 -724,-527l-760 -502c-44,-22 -71,-42 -115,-69z"/> <path class="fil1" d="M10061 8758c67,-126 97,-488 98,-659 0,-103 26,-179 -77,-177 -13,138 14,309 0,454 -11,116 -57,284 -21,381z"/> <path class="fil0" d="M9685 10787c-1,1 -23,-9 -9,45 19,74 33,-43 35,148 -58,-40 -70,-113 -92,-127 -63,-40 -58,8 -60,9 24,36 -3,27 67,39l-6 71 -140 -37c-43,-17 16,-7 -48,-16 22,122 289,134 315,114l46 -88c-2,-3 -4,-11 -5,-9l-22 -44c27,-29 29,-25 37,-72 -23,-25 -17,-26 -48,-37 -57,-20 -69,3 -69,3z"/> <path class="fil1" d="M8697 10082c26,34 44,52 100,52 11,-60 -31,-117 -47,-177 -18,-64 -28,-126 -44,-194l-59 -288c-12,-71 0,-57 -69,-61 4,120 48,211 71,326 23,118 50,212 48,343z"/> <path class="fil1" d="M2900 7432c76,29 94,35 154,79l608 379 401 349c45,35 89,68 130,106 49,46 94,64 142,107 22,20 46,40 66,60 31,31 20,35 58,67l292 208c52,24 34,14 77,47 23,18 50,28 79,47 74,47 229,153 321,167l-457 -265c-149,-117 -55,-3 -277,-209l-274 -226c-50,-41 -78,-77 -130,-119 -34,-27 -108,-75 -133,-104 -152,-173 -239,-191 -278,-222l-437 -314 -341 -157z"/> <path class="fil1" d="M10769 9986c-35,-38 -45,-48 -81,-93 -89,-108 -226,-121 -115,-343l-40 34c-10,172 -68,121 -79,334 -6,105 -109,184 -40,294 7,-109 -1,-72 28,-83 1,3 36,217 38,238 -2,-20 8,-62 0,-115 -18,-129 6,-263 32,-386 1,-6 6,-29 8,-34 9,-25 11,-21 19,-34 100,28 129,181 230,188z"/> <path class="fil0" d="M7598 10899c53,14 45,-1 46,-1l22 78 -178 109c21,16 -4,14 36,20 12,2 41,-2 57,-2 33,0 18,0 46,6l59 11c-14,-54 -4,-21 -21,-62 39,-23 49,-34 39,-97l138 -23c-21,-65 -47,-40 -157,-97 -56,-29 25,-17 -63,-23 -30,37 -30,30 -23,81z"/> <path class="fil1" d="M8915 6791c0,58 -133,308 -50,607l75 273c46,166 33,253 85,276 -3,-69 -85,-339 -116,-417 -18,-45 -27,-87 -37,-143 -20,-108 -4,-411 28,-494 24,-64 15,-79 75,-93 -24,-20 -44,-35 -76,-54 -57,-11 -227,166 -279,-9 -8,-28 -11,-56 -19,-81 -18,356 134,121 314,135z"/> <path class="fil1" d="M914 7543c58,41 347,2 432,-11 116,-18 332,-2 418,-58 -29,-26 36,-4 -36,-25l-705 82c-47,-2 -75,-12 -109,12z"/> <path class="fil0" d="M7172 11006c-107,-32 -59,-58 -135,-62 -13,74 7,77 53,111 -68,-5 -180,-72 -245,-40 47,49 195,98 290,95 10,-28 7,-16 27,-29l109 36c-5,-62 -46,-95 -100,-111z"/> <path class="fil1" d="M3402 8613c52,49 162,148 219,165 35,-84 -14,-33 50,-62l-9 107c58,21 50,47 127,53l21 -87c-34,15 -29,23 -73,26l-10 -85 -117 -84c-4,7 -6,8 -6,14l-38 58c-2,-3 -63,8 0,-104 -29,-10 -28,-12 -56,-22 -33,79 22,40 -50,66l-5 -88c-5,-25 -5,-18 -14,-33 -29,17 -14,-17 -39,74z"/> <path class="fil1" d="M1412 7305c24,34 10,35 0,52 -5,-9 -37,1 0,-52zm-163 -25c0,-9 21,-21 17,2 -4,21 -16,32 -17,-2zm-173 -14c130,42 192,79 246,46l20 -13c45,82 88,148 194,91 44,17 74,29 122,0l-50 -15c-79,-21 -32,-58 -114,-6l-21 -29c-52,-72 -225,-104 -298,-112 -47,51 18,24 -63,44l-14 -64c-9,4 -13,4 -13,10l-10 47z"/> <path class="fil1" d="M10949 8940c155,52 913,-212 1242,-210 90,1 332,47 388,38 54,-9 19,-8 27,-28 -210,51 -445,-105 -854,31 -383,127 -482,100 -803,169z"/> <path class="fil0" d="M9215 11057l69 60c53,-24 18,4 46,-41l327 20c-54,-116 -166,-31 -258,-73 -67,-31 17,-51 -145,-56 -14,27 -28,50 -38,91z"/> <path class="fil0" d="M9193 10874c-108,-7 -90,9 -101,16 18,20 -54,32 107,35 -29,66 -205,118 -231,185 51,4 75,7 118,-18 43,-25 35,-39 67,-58 30,-19 22,-6 47,-22 53,-33 75,-62 77,-107 -27,-26 -38,-27 -84,-30z"/> <path class="fil1" d="M11208 8165c-17,120 -74,616 -17,666 15,-37 34,-557 60,-667l-43 1z"/> <path class="fil1" d="M10932 8798l16 -517c-32,12 -27,-18 -40,46 -19,92 -69,468 24,471z"/> <path class="fil0" d="M9824 10983c47,-16 43,0 57,-56 98,6 216,-40 229,-114 -119,-41 -95,88 -200,56 67,-36 30,0 51,-48 -34,-36 -17,-27 -76,-34 -3,3 -7,4 -8,10 -1,6 -6,8 -7,10 -2,3 -8,17 -10,20 -25,54 -38,93 -36,154z"/> <path class="fil0" d="M6191 11031l-84 6c10,46 -1,44 50,55 94,19 151,-32 187,-115l113 32c-24,-66 -68,-94 -144,-91 -26,23 -30,34 -52,55 -30,29 -36,19 -70,57z"/> <path class="fil0" d="M3607 10851c39,21 55,28 113,22 12,64 24,53 89,68l-35 -64c15,-44 32,-35 14,-84 18,-15 24,-9 38,-42 -75,-58 -33,13 -121,17 -84,4 -104,-27 -98,82z"/> <path class="fil1" d="M8394 8369l67 -14 -32 -315c-13,-43 -18,-47 -64,-44 -22,61 33,274 29,374z"/> <path class="fil0" d="M4682 10988c-20,-75 -93,-87 -177,-97 -17,-58 -3,-58 -65,-72l-11 20c-48,143 26,117 151,150 4,1 45,13 47,13 45,5 29,3 55,-14z"/> <path class="fil1" d="M2895 8254c52,22 61,44 115,71 35,-35 16,-43 60,-61 18,58 6,54 -4,113 53,25 75,54 125,80 2,-2 5,-9 6,-7 0,1 29,-40 27,-79 -87,-24 25,3 -77,22 0,-66 24,-107 -123,-172 -33,42 -10,42 -54,57l-43 -118c-15,23 -26,65 -32,94z"/> <path class="fil1" d="M3662 9280c60,-21 72,-51 96,-113 170,-439 179,-248 303,-349l-61 -42c-87,94 -140,42 -211,211 -23,54 -35,100 -54,154 -25,69 -50,85 -73,139z"/> <path class="fil0" d="M11853 10974c-30,58 -66,43 -69,128l267 -32c-25,-74 -84,-32 -167,-36 20,-75 32,-26 31,-104 -33,-15 -62,-26 -109,-22 5,50 12,42 47,66z"/> <path class="fil1" d="M3532 7940c-59,-13 -102,-33 -118,-78 38,-24 23,-13 70,9 66,32 37,-15 48,68zm-217 -80c59,-14 -1,-23 56,-58 0,0 47,14 7,98 52,53 43,36 136,40 -11,53 -2,20 -17,59l52 30c7,-72 -11,-58 30,-88 75,87 -46,103 37,141l19 -76 70 39c-57,-80 -296,-256 -378,-281 -5,75 -17,33 -21,75 -4,60 -8,-1 9,20z"/> <path class="fil0" d="M9910 10968c-30,32 -18,-2 -22,63 -67,7 -34,-8 -64,27 19,24 -17,43 108,31 32,-66 22,-50 105,-71 83,-20 98,-14 105,-91 -96,4 -46,19 -112,38 -49,14 -82,-5 -121,4z"/> <path class="fil0" d="M7154 10904c-5,63 -18,47 22,77 40,-16 10,3 29,-20 2,-3 9,-17 12,-20 2,-3 5,-8 7,-10 2,-3 5,-7 8,-10 -8,58 13,109 79,104 -2,-60 -22,-61 -35,-122 -16,-74 -37,-73 -100,-41 -22,-18 -32,-35 -64,-43 -20,72 -16,49 41,84z"/> <path class="fil1" d="M9056 8460c153,55 188,-72 604,196l137 73c63,20 32,0 41,-6 -33,-30 -117,-45 -172,-85 -45,-32 -116,-82 -168,-109 -69,-35 -366,-127 -441,-69z"/> <path class="fil1" d="M4597 9085c-31,-55 -295,-139 -366,-179 -45,-25 -67,-48 -119,-56 24,56 419,264 485,235z"/> <path class="fil0" d="M5074 11029c25,36 -30,5 32,31 3,1 38,7 44,8 36,5 74,8 110,7 134,-3 150,16 205,7 -19,-107 -227,-38 -289,-52 -6,-1 -42,-15 -42,-15 -79,-13 -46,5 -60,14z"/> <path class="fil1" d="M8337 9321c63,29 757,5 822,-22 -85,-4 -796,7 -822,22z"/> <path class="fil0" d="M7755 11057c42,19 92,20 136,9 8,-19 18,-12 -2,-63 53,-22 106,-27 84,-89 -5,-2 8,-37 -55,9 -144,106 -147,68 -163,134z"/> <path class="fil1" d="M10973 10867c-40,-13 -49,-37 -45,-99 5,-62 -7,-81 -6,-142 3,-104 26,-205 19,-317 -52,51 -50,184 -41,276 12,126 -23,157 5,273l67 9z"/> <path class="fil0" d="M3781 10988c-17,-24 11,-12 -33,-32l-167 -15c-40,-80 41,-52 -65,-70 -24,104 22,128 160,133 121,5 85,-3 105,-16z"/> <path class="fil1" d="M2433 7912c33,25 215,150 248,150 2,-74 25,-86 -32,-112 -2,4 -10,25 -10,26 -23,35 9,9 -32,29 -25,-20 -20,10 -26,-60 -4,-45 17,-20 -15,-62 -15,18 0,-10 -11,23 -1,3 -2,8 -3,11 -1,3 -2,8 -4,11 -1,3 -4,8 -5,11 -1,3 -3,7 -5,11 -102,-39 26,-91 -69,-124 -23,48 0,53 -35,86z"/> <path class="fil1" d="M2194 7752c50,37 129,106 191,129 24,-35 50,-89 0,-113 -2,67 12,44 -28,75 -52,-75 14,-77 -25,-121 -23,-26 -29,7 -32,11 -39,54 26,21 -45,47 -39,-64 12,-75 -37,-120 -26,30 -23,49 -24,92z"/> <path class="fil0" d="M10572 11104l296 -20c-18,-40 13,-8 -46,-35 -22,-10 -32,-22 -63,-25 -78,-8 -73,36 -152,2l-35 77z"/> <path class="fil1" d="M5062 9446c-12,-41 -19,-44 3,-84l28 -2c0,0 32,-10 12,52 -19,58 -13,24 -43,35zm-51 0c78,67 82,30 161,9 -27,-36 -20,-22 -29,-72l137 1c-101,-29 -195,-32 -293,-56 44,39 20,45 25,118z"/> <path class="fil0" d="M4713 11029c5,8 7,72 143,13 86,-37 95,-27 133,-55 -68,-97 -108,3 -194,19 -61,12 -32,-14 -82,23z"/> <path class="fil0" d="M1756 10918c46,74 99,17 185,15 12,51 -5,43 41,75 31,-27 37,-46 37,-86 -47,-31 -135,-34 -195,-27 -3,0 -35,6 -36,6 -23,7 -19,8 -32,17z"/> <path class="fil0" d="M3220 11040c48,9 141,17 181,-11 -22,-48 -7,-39 -148,-49 -46,-67 23,-54 -70,-80 3,56 15,104 37,140z"/> <path class="fil1" d="M7893 8861c112,147 -5,204 110,272 -5,-45 -3,-94 -18,-135 -22,-57 -29,-49 -22,-121 60,-43 83,-9 68,-77l-139 62z"/> <path class="fil1" d="M10934 9956c44,-101 27,-147 40,-268 10,-91 35,-199 31,-289 -90,44 -38,335 -55,417 -13,63 -24,59 -16,140z"/> <path class="fil1" d="M5400 9474c89,81 66,-40 223,-14 -10,44 6,9 -15,32 -52,56 10,-26 -25,19l102 1c2,-4 28,-41 34,-52 -85,-35 -229,-58 -319,14z"/> <path class="fil0" d="M3834 10922c18,43 -3,44 52,49 20,2 51,-9 66,-14 49,-16 103,-19 134,-54 -70,-71 -139,12 -252,18z"/> <path class="fil1" d="M3988 8307c15,68 -16,44 -19,49 -38,-19 -24,19 -34,-34 -11,-57 20,-46 20,-46 31,17 23,-13 33,32zm-157 -29c49,39 141,123 190,152 -5,-146 -14,-60 13,-118 -52,-29 -52,-51 -107,-81 -29,54 21,33 -42,69 -27,-49 -17,-43 -12,-118l-41 96z"/> <path class="fil1" d="M10566 10541c57,-28 85,-75 118,-116 35,-43 84,-74 106,-132 -120,20 -36,103 -260,195 11,31 15,35 37,53z"/> <path class="fil0" d="M7413 11084c96,-5 162,-88 159,-138 -5,-66 -9,-30 -20,-44 -39,25 -35,55 -67,89 -50,52 -66,14 -72,94z"/> <path class="fil1" d="M9219 8687c-55,-34 -27,-32 -56,-89l-8 18c-1,3 -1,19 -2,24 0,0 22,-10 -17,50 -72,-20 -14,8 -55,-46 -32,87 118,58 206,64l3 -116 -52 -3c2,76 13,60 -19,97z"/> <path class="fil1" d="M11997 10565c103,-88 120,-496 28,-560 24,155 69,108 26,287 -15,64 63,122 -74,238l20 34z"/> <path class="fil1" d="M11348 10002c51,-45 47,-2 42,-100 -50,22 -92,54 -95,114 -4,83 23,82 101,78l-4 -73c-2,55 4,47 -45,42l3 -62z"/> <path class="fil0" d="M4062 11015c20,14 -28,18 46,17l176 -20c-12,-89 -186,-58 -222,3z"/> <path class="fil0" d="M6556 10966c74,-15 145,-13 174,-62 -27,-28 -110,-34 -161,-24l-13 86z"/> <path class="fil1" d="M4413 9247c84,-6 -18,5 56,-35 30,62 -11,35 42,73l41 -89c-50,-45 -182,-73 -138,51z"/> <path class="fil1" d="M9907 8719c0,-92 3,-33 34,-44 3,3 7,3 8,9 1,6 6,7 7,10l53 201c33,101 31,181 78,200l-133 -450 -79 1c7,35 18,47 31,74z"/> <path class="fil0" d="M2067 11002c39,32 179,15 221,-14 -6,-11 14,-49 -109,-28 -118,20 -92,13 -111,42z"/> <path class="fil0" d="M7513 9224c8,6 -12,33 68,21 14,-2 33,-18 48,-23 82,-34 67,11 99,-77 -91,7 -75,17 -159,50 -4,2 -16,5 -21,7 -25,12 -21,12 -35,22z"/> <path class="fil1" d="M10924 10087c-29,-6 8,-1 -24,-2 -13,-1 -25,4 -37,6l4 98c21,19 26,27 69,29 12,-28 40,-120 -11,-131z"/> <path class="fil1" d="M9010 8792c40,-101 -23,-19 -45,-207 -7,-62 1,-39 -25,-72 1,72 -16,248 70,279z"/> <path class="fil1" d="M13268 8772l47 23c52,-42 64,-88 15,-148 -41,22 -60,59 -62,124z"/> <path class="fil0" d="M4648 10166c-40,-31 -144,-28 -204,-41 -78,-17 -134,-45 -208,-38 56,46 312,83 412,79z"/> <path class="fil1" d="M8516 8509c32,-5 246,-43 261,-49 -50,-39 -162,-18 -222,4 -48,18 -37,9 -40,45z"/> <path class="fil1" d="M10114 9664l-19 -162c-41,-17 -67,-24 -105,-48 35,48 72,164 124,210z"/> <path class="fil0" d="M8870 10909c67,-6 88,-36 86,-102 -34,-13 -39,-17 -87,-17l1 119z"/> <path class="fil0" d="M2679 11057c12,11 -13,8 35,20 12,3 32,3 48,7 51,11 45,22 102,9 -14,-54 -3,-55 -76,-56 -41,-1 -78,2 -109,20z"/> <path class="fil0" d="M8376 11074c-17,-77 -81,-77 -160,-75 12,46 -2,38 58,58 36,12 63,15 102,16z"/> <polygon class="fil1" points="11009,9190 11012,9259 11127,9263 11117,9189 "/> <path class="fil1" d="M2314 7640c-57,-28 -22,-30 -68,-54l-242 -133c-30,-14 -59,-23 -87,-37 -74,-38 -183,-105 -267,-100 148,49 544,235 664,325z"/> <path class="fil0" d="M5762 11095c65,0 20,12 53,-23 39,-42 18,-5 35,-56 -23,-32 -30,-43 -82,-36l-6 115z"/> <path class="fil1" d="M3260 8512l46 -15c2,0 6,-1 8,-1 1,0 5,0 8,0 19,60 -13,45 35,84l25 -78 -119 -67c-23,59 -10,60 -3,77z"/> <path class="fil1" d="M4318 9529c56,-7 94,-30 149,-43 68,-17 109,-10 141,-67 -65,0 -248,80 -290,110z"/> <path class="fil1" d="M4297 9099c-14,60 -3,12 -18,47 -11,23 -16,4 -5,33 21,-37 3,-29 55,-41l8 77c40,-29 27,-46 33,-101l-116 -64c20,37 7,-5 43,50z"/> <path class="fil1" d="M10541 9133l136 10 -15 -74c-48,2 -19,-2 -59,42 -2,2 -6,5 -10,8 -38,-32 -16,-19 -42,-59 -17,23 -18,15 -11,73z"/> <path class="fil1" d="M10699 8960c-57,-19 -210,-23 -284,-41 -84,-20 -177,-64 -277,-68 83,29 490,140 561,108z"/> <path class="fil1" d="M4623 9309l18 -123 55 -13 34 -70 -52 -6c-3,3 -7,3 -8,8l-20 24c-38,55 -27,109 -26,182z"/> <path class="fil1" d="M4796 9335l1 60c124,92 104,9 104,9 -36,-18 24,1 -20,-5l-29 -3c-18,-45 -19,-52 1,-96 -42,4 -24,2 -56,35z"/> <path class="fil0" d="M7322 10827c-41,61 -26,84 36,91 29,-38 26,-40 34,-87 -73,-18 -68,-4 -69,-4z"/> <path class="fil0" d="M2548 11029c1,0 14,45 114,-12l8 -63c-42,-7 -7,-6 -93,45 -31,18 -14,-1 -29,30z"/> <path class="fil0" d="M6761 10960c59,26 115,-15 123,-69 -56,-28 -34,-18 -70,11 -37,30 -39,18 -53,58z"/> <path class="fil1" d="M4691 8905c19,47 -6,13 27,43l42 -44 44 41c25,21 17,16 33,77 64,-85 -162,-192 -169,-194 34,28 40,20 56,62 -22,27 1,9 -33,15z"/> <path class="fil0" d="M6895 10154c39,43 107,56 175,59 -14,-35 -35,-46 -122,-67 -98,-24 -29,-5 -53,8z"/> <path class="fil0" d="M6909 10342c38,56 182,69 218,48 -43,-27 -156,-50 -218,-48z"/> <path class="fil1" d="M6072 9307c-17,-7 -163,-24 -204,-35 -223,-59 -280,-68 -498,-155 -33,-13 -56,-28 -94,-39 48,17 125,54 175,77 92,41 537,179 621,152z"/> <path class="fil1" d="M10648 10768c-50,-25 11,-38 -60,-3 4,-1 5,8 7,10l94 61c39,24 57,35 107,33 -96,-38 -27,-39 -148,-101z"/> <path class="fil0" d="M8202 10873c-9,-61 -59,-67 -114,-73 12,80 24,93 114,73z"/> <path class="fil1" d="M5761 9476c-10,19 -16,13 -2,49 67,-21 -12,3 56,-44 3,3 7,3 8,9 1,3 17,40 48,55 27,-44 18,-40 6,-76 -54,-4 -77,-16 -116,7z"/> <path class="fil1" d="M8469 8878c15,-22 33,35 8,-49 -3,-11 -18,-35 -22,-52 -6,-26 -3,-42 -8,-65 -14,-73 -12,-33 -34,-42 -38,62 6,30 31,150l24 58z"/> <path class="fil1" d="M10301 11136c-14,-78 -23,-40 -83,-28 -70,14 -84,-8 -136,30l219 -2z"/> <path class="fil1" d="M12625 9797c-2,-1 3,29 -13,-10 -14,-35 -6,-16 -10,-51 62,21 -3,-1 34,13 31,11 -6,4 33,9l-48 -101c-71,32 -52,112 3,139z"/> <path class="fil0" d="M3414 7863c16,44 59,65 118,78 -11,-83 18,-36 -48,-68 -47,-23 -32,-33 -70,-9z"/> <path class="fil0" d="M6475 11077l118 -1c-15,-42 19,-22 -43,-45 -28,-11 -43,-12 -72,-17l-2 63z"/> <path class="fil1" d="M5123 9146c44,-25 24,-22 83,-21l16 53 58 -18c26,84 48,44 65,36l-172 -94c-78,-25 -44,-10 -50,44z"/> <path class="fil0" d="M9960 9947c0,-85 -2,-98 -68,-115 -2,78 9,96 68,115z"/> <path class="fil0" d="M2384 10997c13,24 -5,39 57,40 60,0 45,-12 59,-35 -6,-4 -46,-50 -116,-4z"/> <path class="fil0" d="M10225 11010l66 -6c22,-61 -2,-70 -67,-81l0 87z"/> <path class="fil1" d="M8651 9961c-16,-113 -66,-248 -66,-350 -19,31 -14,-18 -13,40 0,0 8,41 9,46 7,35 11,63 17,95 11,62 26,129 54,169z"/> <path class="fil1" d="M2858 8209c1,-94 27,-97 -48,-127 -1,74 -17,98 48,127z"/> <path class="fil0" d="M4214 10888l67 9c-6,-68 -7,-94 -65,-96l-2 87z"/> <path class="fil0" d="M5373 10946l102 40c-4,-60 3,-37 -22,-81 -40,2 -70,5 -80,41z"/> <path class="fil0" d="M10008 9854l-39 -78 -27 34c-1,3 -1,8 -1,11 -5,67 55,73 55,73 11,-19 20,26 11,-40z"/> <path class="fil1" d="M8101 8744c58,-7 117,-65 132,-128 -37,20 -36,27 -74,62 -43,38 -55,17 -57,67z"/> <path class="fil1" d="M11074 10246c68,47 182,154 261,177 -24,-6 -163,-158 -261,-177z"/> <path class="fil0" d="M10363 9741c3,-83 1,-91 -65,-105 6,69 0,84 65,105z"/> <path class="fil1" d="M11282 9897c46,-22 91,-55 102,-116 -55,11 -101,59 -102,116z"/> <path class="fil0" d="M6656 10037c-46,-17 -105,-36 -175,-36 31,29 22,18 75,38 139,52 81,14 100,-2z"/> <path class="fil1" d="M8882 8418l58 31c34,-46 29,-92 -50,-81l-8 50z"/> <path class="fil1" d="M11079 10039c78,-38 142,-68 151,-126 -50,11 -120,89 -151,126z"/> <path class="fil0" d="M3565 11029c24,54 72,46 108,14 -26,-43 -58,-46 -108,-14z"/> <path class="fil1" d="M12247 8954l6 -138c-65,0 -54,115 -6,138z"/> <path class="fil1" d="M9911 9275c-6,-80 16,-203 -3,-240 -35,54 -19,183 3,240z"/> <path class="fil0" d="M3020 11068c-9,-57 -24,-70 -89,-61 3,54 32,70 89,61z"/> <path class="fil0" d="M5224 10988c16,33 -35,40 48,33 56,-5 42,-31 44,-39 -102,-42 -76,-5 -92,6z"/> <path class="fil1" d="M8532 9244c107,53 73,-85 29,-108 -10,62 17,86 -29,108z"/> <path class="fil1" d="M10795 8890c56,44 86,21 102,-28 -36,-13 -94,-15 -102,28z"/> <path class="fil1" d="M8336 8488c42,32 35,1 91,25l21 -59c-40,1 -98,0 -112,34z"/> <path class="fil0" d="M8034 11063l78 20 -19 -77c-54,3 -56,3 -60,57z"/> <path class="fil0" d="M5062 9446c30,-11 25,23 43,-35 20,-61 -12,-51 -12,-52l-28 2c-22,41 -15,44 -3,84z"/> <path class="fil1" d="M9968 9667c23,13 23,9 43,27l40 41c18,-45 -38,-97 -67,-117l-17 49z"/> <path class="fil1" d="M9574 8841c44,-57 -9,-24 53,-50 18,34 12,56 29,90 2,-56 -2,-40 19,-61 -30,-36 -48,-46 -103,-62l2 83z"/> <path class="fil0" d="M3968 8356c3,-5 34,19 19,-49 -10,-45 -2,-16 -33,-32 0,0 -31,-11 -20,46 10,53 -4,16 34,34z"/> <path class="fil1" d="M12582 8873c-6,68 -17,77 39,83l8 -100 -47 16z"/> <path class="fil1" d="M3724 8143c-40,-15 -20,8 -41,-39 -1,-3 -2,-9 -3,-11 -1,-2 -1,-8 -3,-11l-24 30c20,26 51,59 94,74l2 -118c1,4 -3,5 -4,11l-21 63z"/> <path class="fil1" d="M12140 8919c-14,-108 -15,-45 19,-110l-62 3c24,88 -29,91 43,107z"/> <path class="fil1" d="M10733 9435c45,-14 22,-8 46,-27 17,-13 23,-18 51,-32 36,-18 81,-29 103,-41 -60,-27 -173,55 -200,100z"/> <path class="fil0" d="M2865 10932c19,58 38,47 87,27 -8,-25 -3,-32 -29,-40 -48,-15 -50,8 -58,12z"/> <path class="fil1" d="M4246 8633c32,-70 -38,-40 -11,-126 3,-9 5,-13 8,-30l-38 -17c-3,70 13,127 40,172z"/> <path class="fil0" d="M7462 10898c-9,-69 -1,-61 -69,-66 9,76 -3,60 69,66z"/> <path class="fil1" d="M12351 8928c-3,-6 -21,-12 -10,-49 21,-74 -6,-21 45,-37 8,12 43,-10 4,89l56 7c-49,-43 -44,-17 -36,-105 78,3 27,-14 71,44 -4,-67 -52,-63 -110,-61 -15,28 -64,89 -21,113z"/> <path class="fil0" d="M7286 10417c22,30 12,28 51,39 29,8 40,6 70,8 -30,-56 -54,-51 -121,-47z"/> <path class="fil1" d="M13268 9182l58 26c20,-27 24,-27 31,-68 -53,-2 -70,12 -89,42z"/> <path class="fil1" d="M9720 8932c61,-7 45,-15 79,20l6 -80c-3,1 -39,13 -43,14 -65,28 -26,-9 -42,46z"/> <path class="fil0" d="M11749 11031l-4 -65 -75 -14c13,39 7,30 34,54 37,34 -6,8 45,26z"/> <path class="fil0" d="M3853 10880c74,-2 60,4 62,-76 -52,14 -48,11 -62,76z"/> <path class="fil0" d="M7215 9363c10,8 -27,29 59,21 46,-5 33,-17 38,-21 -52,-53 -79,-13 -96,0z"/> <path class="fil0" d="M2338 10918c12,21 -14,27 34,32 56,6 37,-20 44,-32 -14,-10 18,-17 -32,-18 -77,-2 -26,5 -45,18z"/> <path class="fil1" d="M8183 9330c23,15 32,20 70,12l-1 -62c-47,3 -53,9 -69,50z"/> <path class="fil1" d="M8691 8712c9,-12 21,25 18,-58 -2,-46 -5,-35 -18,-55 -42,27 -19,78 0,112z"/> <path class="fil1" d="M10447 9120l50 4c-19,-62 -2,-76 -54,-92l4 87z"/> <path class="fil0" d="M10437 11023c21,-64 23,-43 -24,-69 -2,2 -38,-21 -23,35 13,50 -1,20 47,34z"/> <path class="fil0" d="M6385 9568c30,-36 23,-42 6,-83 -26,11 -39,-17 -38,44 0,40 16,30 32,39z"/> <path class="fil0" d="M11144 11048c-41,-19 -41,9 -41,9 15,59 1,39 68,47 -9,-56 20,-35 -27,-56z"/> <path class="fil0" d="M4760 10982c12,-18 17,2 17,-36 0,-41 -12,-33 -17,-40 -16,6 -26,-16 -33,28 -9,65 12,36 33,48z"/> <path class="fil1" d="M3274 7817c6,-60 19,-55 0,-104 -18,17 -28,-35 -28,53 0,70 7,35 28,51z"/> <path class="fil1" d="M4482 8769c31,-28 53,-56 -8,-93 -26,111 -3,79 8,93z"/> <path class="fil0" d="M3412 10835c21,35 32,47 83,53l-26 -53c-21,-22 30,-12 -23,-14 -60,-3 -15,4 -34,14z"/> <path class="fil1" d="M2732 8119c35,-10 9,22 26,-30 8,-25 9,-35 13,-57 -50,-18 -59,36 -39,87z"/> <path class="fil1" d="M8135 9203c34,-51 -12,-71 -59,-81 10,33 24,67 59,81z"/> <path class="fil1" d="M12575 9450c23,-49 38,-164 5,-204l-5 204z"/> <path class="fil1" d="M3807 8242c0,-49 15,-92 -6,-123 -24,37 -43,107 6,123z"/> <path class="fil1" d="M4060 8474c53,42 53,64 105,95 -19,-45 -51,-123 -105,-95z"/> <path class="fil1" d="M945 7243l6 -68 -47 -2c-4,57 -14,69 41,70z"/> <path class="fil0" d="M10948 11092c26,9 53,38 48,-47l-57 -5 3 42c1,2 3,7 5,10z"/> <path class="fil1" d="M735 7060c-9,3 -414,-55 -512,-50 61,9 177,17 247,24 78,8 193,33 265,26z"/> <path class="fil0" d="M4419 9877l139 31c-17,-35 22,-6 -18,-28 -18,-11 -21,-8 -45,-11 -42,-4 -51,-8 -76,8z"/> <path class="fil1" d="M988 7256l35 4c19,-56 14,-68 -37,-71l2 67z"/> <path class="fil0" d="M341 7127c0,0 8,70 73,0 -16,-12 25,-17 -31,-18 -69,-2 -29,8 -43,18z"/> <path class="fil1" d="M2948 7635c50,5 38,10 83,27 1,-34 23,-17 -17,-40 -77,-45 -66,13 -67,14z"/> <path class="fil1" d="M11799 10797c104,-35 91,-77 135,-163l-99 138c-24,17 -24,6 -35,25z"/> <path class="fil1" d="M13413 8646l17 -132c-17,16 -20,-2 -33,70 -10,54 -17,44 16,62z"/> <path class="fil0" d="M11198 11071c19,29 -5,11 25,30 22,14 19,5 44,7 -10,-25 -2,-32 -25,-46 -59,-37 -43,8 -44,9z"/> <path class="fil1" d="M2135 7707c17,-34 17,-51 0,-89 -5,5 -14,-18 -24,43 -10,62 6,38 24,46z"/> <path class="fil1" d="M8205 8935c57,-42 23,-42 8,-91 -19,29 -10,-9 -18,38 -15,81 4,43 10,53z"/> <path class="fil0" d="M4603 10307c-39,-23 -77,-26 -134,-27 37,28 93,50 134,27z"/> <path class="fil0" d="M9891 9949c0,-80 13,-50 -33,-75 -13,18 -21,17 -5,48 14,26 9,14 38,27z"/> <path class="fil1" d="M10302 9085c20,-15 13,15 21,-30 9,-47 -4,-45 -8,-53 -22,13 -15,-18 -24,29 -9,46 7,47 10,54z"/> <path class="fil1" d="M12416 9180c29,46 -1,14 38,39l4 -112 -42 73z"/> <path class="fil1" d="M5235 9460c18,9 19,13 53,15 88,3 39,-4 53,-15 -41,-19 -69,-23 -106,0z"/> <path class="fil1" d="M3127 7715c7,-45 17,-48 -6,-85 -44,23 -33,58 6,85z"/> <path class="fil1" d="M9510 8788l24 -64 -43 -25c-1,62 -8,57 20,89z"/> <polygon class="fil1" points="4076,8414 4150,8426 4069,8350 "/> <path class="fil1" d="M3204 7765c6,-51 28,-80 -20,-89 -1,6 -6,46 -6,48 8,42 -3,16 26,41z"/> <path class="fil1" d="M4901 9038c22,-57 -2,-20 45,-37l21 64c29,-50 -11,-80 -63,-90l-2 62z"/> <path class="fil1" d="M1980 7238c34,17 64,31 95,13 -10,-8 -20,-19 -41,-24 -78,-16 -48,7 -54,11z"/> <path class="fil0" d="M8037 10946c23,38 29,35 68,14 -8,-15 9,-20 -27,-26 -60,-10 -34,8 -41,12z"/> <path class="fil0" d="M11494 11113c27,38 3,42 59,17 -18,-36 16,-21 -29,-32 -52,-13 -18,6 -30,15z"/> <path class="fil0" d="M6871 9500c4,-5 46,7 0,-68 -24,24 -22,-43 -18,40 2,39 15,24 18,28z"/> <polygon class="fil1" points="2016,7651 2060,7670 2036,7564 "/> <path class="fil1" d="M1880 7567l-3 -83c-55,33 -37,66 3,83z"/> <path class="fil0" d="M3870 11057c12,9 -19,20 29,15 42,-4 10,-1 27,-15 -37,-74 -48,-7 -56,0z"/> <path class="fil1" d="M8619 8722l-7 -102c-51,18 -13,86 7,102z"/> <path class="fil0" d="M6285 9531c-7,-41 -14,-22 -25,-28 -18,43 -19,48 14,67 1,-2 18,9 11,-38z"/> <path class="fil0" d="M5581 10960c14,26 9,46 64,14 -16,-37 -22,-34 -64,-14z"/> <path class="fil0" d="M10389 10935c-11,-42 -10,-46 -55,-53 2,49 10,44 55,53z"/> <path class="fil1" d="M-66 7161c21,-29 37,-42 6,-82 -28,35 -21,40 -6,82z"/> <path class="fil0" d="M6481 9918l86 20c-11,-16 20,-16 -33,-31 -68,-19 -48,8 -53,12z"/> <path class="fil0" d="M6177 9542c5,-66 2,-6 -14,-35 -55,65 -2,62 0,65 19,-28 10,30 14,-30z"/> <path class="fil0" d="M10989 9085c11,15 -11,31 33,26 35,-4 13,-4 18,-33 -32,-12 -29,-7 -51,8z"/> <path class="fil1" d="M4555 8814c4,-4 19,-17 20,-26 7,-48 1,-21 -24,-36 -22,46 -18,32 4,62z"/> <path class="fil1" d="M9347 8731c7,-78 -12,-61 32,-104l-47 -19 15 123z"/> <path class="fil1" d="M10519 10705c-16,-50 -30,-90 -67,-123 10,61 45,85 67,123z"/> <path class="fil1" d="M10774 10178c23,-37 27,-77 -12,-104l12 104z"/> <path class="fil0" d="M11521 8957c13,44 -30,-12 10,38 35,44 27,-1 28,-1 3,-38 10,-25 -38,-36z"/> <path class="fil1" d="M4691 8905c-23,-30 -20,-29 -63,-33l-4 -71 -30 74c53,-14 47,8 97,30z"/> <path class="fil1" d="M1590 7180c11,7 -20,15 32,17 71,3 19,1 39,-16 -23,-9 -50,-19 -71,0z"/> <path class="fil1" d="M9427 8759c26,-55 -20,-61 33,-82 -40,0 -79,61 -33,82z"/> <path class="fil1" d="M8299 8845c-3,-44 -7,-44 -51,-48 14,38 13,38 51,48z"/> <path class="fil0" d="M4488 9793c7,4 17,13 36,12 82,0 13,6 42,-15 -36,-12 -44,-20 -79,2z"/> <path class="fil1" d="M10219 9058c15,-21 19,35 14,-28 -3,-38 1,-8 -14,-31 0,1 -43,8 0,59z"/> <path class="fil1" d="M4413 8684c22,-46 20,-34 -14,-56 -20,44 -21,35 14,56z"/> <path class="fil0" d="M8247 10946c22,29 17,34 55,14 -24,-40 -18,-36 -55,-14z"/> <path class="fil1" d="M9352 9385c-19,-17 -63,-50 -87,-62 13,41 40,54 87,62z"/> <path class="fil1" d="M13274 9274c58,3 95,4 117,-43 -38,9 -20,10 -45,23 -36,17 -39,12 -72,20z"/> <path class="fil0" d="M6774 9509c17,-46 13,-32 -14,-51 -5,8 -25,-19 -8,37 10,33 -1,5 22,14z"/> <path class="fil1" d="M2900 7432c-31,-18 -96,-61 -132,-61 35,29 79,45 132,61z"/> <path class="fil1" d="M1954 7607c17,-36 3,-55 -10,-89 -5,52 -18,55 10,89z"/> <path class="fil0" d="M7371 11042c49,-63 4,-49 -5,-58 -10,35 -12,-10 -6,31 4,28 2,13 12,27z"/> <path class="fil0" d="M715 7172c-5,-23 -18,-13 -37,-16 0,1 -18,0 12,43 15,-52 44,55 25,-28z"/> <path class="fil1" d="M11018 9327c-18,-38 -38,-40 -87,-44 25,16 51,36 87,44z"/> <path class="fil0" d="M11714 11085c-47,-58 -48,-15 -50,-14l14 17c35,22 34,-3 36,-4z"/> <path class="fil1" d="M1891 7139c-95,-9 -141,-39 -265,-32l265 32z"/> <path class="fil1" d="M11597 10160c36,18 82,27 117,4l-117 -4z"/> <path class="fil0" d="M3122 10949c-21,-58 13,-23 -48,-38 22,46 -9,33 48,38z"/> <path class="fil0" d="M5578 11068c-8,-47 10,-28 -39,-37 8,47 -13,32 39,37z"/> <path class="fil1" d="M10385 9106l2 -89c-6,8 -12,-15 -16,41 -3,56 1,33 14,48z"/> <path class="fil0" d="M7150 9374c15,22 -26,20 38,41 -2,-58 17,-32 -38,-41z"/> <path class="fil0" d="M1671 10994c-16,-53 23,-12 -45,-42 19,48 -7,38 45,42z"/> <path class="fil1" d="M10947 10913c37,10 39,26 90,6 -34,-17 -42,-12 -90,-6z"/> <path class="fil0" d="M6052 9543c4,-55 -1,-10 -15,-28 -24,32 -13,25 1,54 16,-21 10,27 14,-26z"/> <path class="fil0" d="M6644 11071c44,35 -43,21 21,14 40,-4 6,7 31,-14 -7,-6 13,-40 -52,0z"/> <path class="fil1" d="M4111 9101c-14,-47 8,-32 -39,-40 5,42 -8,25 39,40z"/> <path class="fil0" d="M6579 9538c22,-30 20,-16 0,-49 -5,5 -42,-4 0,49z"/> <path class="fil0" d="M12228 11099c70,35 41,4 50,-5 -89,-24 -25,-6 -50,5z"/> <path class="fil0" d="M1412 7356c10,-17 24,-18 0,-52 -37,53 -5,43 0,52z"/> <path class="fil0" d="M4022 10738c27,21 -37,18 19,13 35,-3 6,5 29,-13 -57,-38 -34,-9 -48,0z"/> <path class="fil0" d="M5978 10988c33,25 -49,19 20,13 36,-3 7,5 30,-13 -32,-23 48,-19 -20,-13 -36,3 -6,-4 -30,13z"/> <path class="fil0" d="M2767 10967c-4,-45 11,-25 -32,-32 7,41 -10,30 32,32z"/> <path class="fil1" d="M11294 9784c37,-82 -2,-83 5,-120l-5 120z"/> <path class="fil0" d="M1852 11015c47,35 -44,19 21,13 35,-3 10,3 31,-13l-21 -15c-45,5 -2,-9 -31,15z"/> <path class="fil1" d="M8067 9057c11,6 -1,11 26,9 48,-3 6,1 22,-9 -52,-37 -41,-5 -48,0z"/> <path class="fil0" d="M6689 9515l-13 -23c-3,4 -6,10 -7,13l-4 22c-3,45 0,4 11,17 15,-20 9,6 13,-29z"/> <path class="fil0" d="M6763 10099c-22,-37 11,-16 -47,-28 17,25 -30,19 47,28z"/> <path class="fil0" d="M10520 11039c-6,-44 11,-26 -34,-34 9,32 0,26 34,34z"/> <path class="fil1" d="M11986 9935l-15 -99c-8,11 -38,-16 -1,55 22,42 30,-11 16,44z"/> <path class="fil1" d="M5068 9073c-29,-32 3,-14 -36,-21 1,51 3,33 36,21z"/> <path class="fil0" d="M11604 8960c29,19 -10,8 29,12l19 -12c-16,-15 7,-11 -29,-15 -77,-8 20,-20 -20,15z"/> <path class="fil0" d="M4105 10807c3,2 8,2 9,6 6,14 37,-5 39,-6 -39,-30 -35,-11 -49,0z"/> <path class="fil1" d="M11422 10779c-18,-15 -21,-24 -47,-14 17,9 -5,38 47,14z"/> <path class="fil0" d="M6479 9485c3,4 10,25 12,27 20,28 -20,-4 25,13 -19,-43 16,-22 -38,-41z"/> <path class="fil1" d="M5530 9261c-67,-4 5,-8 -49,-18 -30,-5 -58,-1 -95,-5l144 23z"/> <path class="fil1" d="M2612 7307l-176 -52c51,-1 135,71 176,52z"/> <path class="fil0" d="M3281 10904c4,3 9,4 11,8l22 0c2,-1 7,-6 11,-8 -35,-26 50,-32 -22,-13l-21 13z"/> <path class="fil0" d="M5954 11071c27,22 24,15 42,0l-17 -9c-27,2 -8,-1 -25,9z"/> <path class="fil1" d="M11877 10434c22,35 13,46 59,70l-59 -70z"/> <path class="fil0" d="M3061 10821c11,7 -3,34 42,0 -3,-2 -6,-9 -7,-6l-35 6z"/> <path class="fil1" d="M12545 9592c21,-28 23,-25 -13,-41l13 41z"/> <path class="fil1" d="M1724 7176c64,61 35,7 36,6l-36 -6z"/> <path class="fil1" d="M4169 9083l48 27c-12,-24 -19,-36 -48,-27z"/> <path class="fil1" d="M8542 8742l0 -82c-18,30 -5,67 0,82z"/> <path class="fil0" d="M10771 11014c-12,-33 23,-16 -36,-24 18,23 6,14 36,24z"/> <path class="fil1" d="M12413 9510l25 -40c-25,8 -35,13 -25,40z"/> <path class="fil0" d="M1249 7279c1,34 12,23 17,2 5,-23 -17,-11 -17,-2z"/> <path class="fil1" d="M1844 7204c19,15 -30,21 22,11 23,-4 -4,2 24,-12l-46 1z"/> <path class="fil0" d="M6330 11085c3,2 7,2 8,5l34 -5c-3,-2 -7,-10 -9,-7 -1,3 -7,-4 -9,-4 -29,3 -8,-2 -25,11z"/> <path class="fil1" d="M11362 10238c-1,37 11,20 15,3 6,-25 -15,-7 -15,-3z"/> <path class="fil0" d="M6999 10252l37 15c-27,-30 -7,-27 -37,-15z"/> <path class="fil1" d="M11177 9244l7 -39c-10,24 -16,21 -7,39z"/> <path class="fil1" d="M7975 8760c25,-4 30,-11 39,-14l-39 14z"/> <polygon class="fil1" points="8030,8979 8028,8941 "/> <polygon class="fil1" points="11960,10219 11909,10216 "/> <polygon class="fil1" points="12288,10219 12261,10157 "/> <polygon class="fil1" points="11728,9965 11726,9925 "/> <polygon class="fil1" points="8909,8800 8907,8771 "/> <polygon class="fil1" points="16,7007 -56,6993 "/> <line class="fil2" x1="2080" y1="7403" x2="1972" y2="7397"/> <path class="fil1" d="M2040 7401l-34 -2c219,108 64,69 574,28 67,-5 97,9 119,-50 -47,-32 -86,-14 -175,-11 -113,4 -312,40 -443,38 -14,0 -27,-1 -40,-2z"/> </g> </svg>