<?xml version="1.0" encoding="UTF-8"?>
<svg enable-background="new 0 0 300 300" viewBox="0 0 256.08456 134.8125" xmlns="http://www.w3.org/2000/svg">
 <defs>
  <linearGradient id="a" x1="177.08" x2="190.2" y1="222.64" y2="202.69" gradientUnits="userSpaceOnUse">
   <stop stop-color="#fff" offset="0"/>
   <stop offset="1"/>
  </linearGradient>
 </defs>
 <g transform="translate(-20.611 -79.531)" fill-rule="evenodd">
  <path d="m100.083,194.916c-.26-1.204.552-1.336 1.417-1.416 1.421-.004 1.686,1.146 2.833,1.416-.022,1.856-3.929,1.805-4.25,0z" fill="#929292"/>
  <path d="m124.16 203.41v-1.416c2.119 0.241 5.227-0.506 5.666 1.416h-5.666z" fill="#262626"/>
  <path d="m77.422,192.084c-1.583-3.462-9.901,7.241-2.833,8.498 .437-3.34 4.918-2.635 4.249-7.082-.08-.864-.212-1.677-1.416-1.416zm19.829,14.163c.247-2.31-9.266-2.859-7.082,1.417 .968,1.094 8.438,3.688 7.082-1.417zm5.666,5.665c2.678.318 3.125-1.596 5.665-1.416 .648-4.425-3.026-4.527-7.082-4.249-.106,2.468.316,4.405 1.417,5.665z" fill="#fff"/>
  <path d="m101.5,193.5c4.473-.109 18.022.186 14.164,4.249-5.734,1.957-4.479-3.074-8.498-2.833-3.831,6.59 8.773,13.639 16.996,8.498h1.417c.32,2.041 4.227.494 4.249,2.833-1.646-.229-2.52.313-2.833,1.417-2.409.52-2.672-1.105-2.833-2.833-7.794,3.583-17.441.479-19.829-5.665-3.416,3.528-5.776-.683-7.082,4.248-4.762-.957-12.707-6.105-15.58-4.248-3.42-1.281-.604-7.995 1.417-8.498 4.26-1.428 2.51,3.154 2.833,5.664 1.261-1.1 3.199-1.521 5.666-1.416-.627-1.26-1.244-2.533-2.833-2.832 4.705-5.521 7.282,3.01 11.331,2.832 .321,1.805 4.228,1.856 4.249,0-1.148-.27-1.413-1.42-2.834-1.416zm-9.915,7.082c4.056.278 7.73.176 7.082-4.25-2.678.318-3.125-1.596-5.666-1.416-.445,1.916-2.015,2.705-1.416,5.666z" fill="#d3d3d3"/>
  <path d="m115.664,197.749c1.742-.618 2.909-1.813 2.833-4.249h1.417c-2.939,5.568-3.195,6.486 2.833,8.498h-5.666c-.321-2.04-4.228-.494-4.249-2.832 1.646.23 2.519-.313 2.832-1.417z" fill="#262626"/>
  <path d="m78.838,193.5c.669,4.447-3.812,3.742-4.249,7.082-7.069-1.257 1.25-11.96 2.833-8.498-2.482,1.294-4.921,2.633-4.249,7.082 2.18-1.598 3.485-4.069 5.665-5.666z" fill="#d3d3d3"/>
  <path d="m93.002,194.916c2.541-.18 2.987,1.734 5.666,1.416 .648,4.426-3.026,4.528-7.082,4.25-.6-2.961.97-3.75 1.416-5.666z" fill="#929292"/>
  <path d="m78.838,193.5c-2.181,1.597-3.485,4.068-5.666,5.666-.672-4.449 1.767-5.788 4.249-7.082 1.205-.261 1.337.552 1.417,1.416z" fill="#929292"/>
  <path d="m124.16 203.41c-8.223 5.141-20.827-1.908-16.996-8.498 4.019-0.241 2.764 4.79 8.498 2.833-0.313 1.104-1.186 1.646-2.833 1.417-7.766-3.721-2.014 4.645 4.249 2.832h7.082v1.416z" fill="#929292"/>
  <path d="m117.08 202c-6.263 1.813-12.015-6.553-4.249-2.832 0.022 2.338 3.928 0.792 4.249 2.832z" fill="#565656"/>
  <path d="m125.58 203.41h4.249c-1.013 3.847 6.679-1.013 5.666 2.833h-5.666c-0.022-2.339-3.929-0.792-4.249-2.833z" fill="#929292"/>
  <path d="m90.169 207.66c-2.184-4.276 7.329-3.727 7.082-1.417 1.356 5.105-6.114 2.511-7.082 1.417z" fill="#d3d3d3"/>
  <path d="m101.5,206.247c4.056-.278 7.73-.176 7.082,4.249-2.54-.18-2.987,1.734-5.665,1.416-1.101-1.26-1.523-3.197-1.417-5.665z" fill="#d3d3d3"/>
 </g>
 <g transform="translate(-20.611 -79.531)">
  <path d="m131.457,182.579 .919,2.299 3.217-.459-6.873-16.581-4.525-.738z" fill="#adb3b3" stroke="#000"/>
  <path d="m136.51 154.54h-1.839l11.031 30.334 2.758 1.84z" fill="#9f5b00" stroke="#000"/>
  <path d="m121.8 168.79 19.304-0.46s11.019-7.004 16.087-12.41c6.895-7.354 16.547-14.247 29.416-13.789 20.258 0.723 43.651 19.666 57.453 25.739 11.489 5.057 17.006 2.299 17.006 2.299l1.378 8.272s-10.112-0.46-14.708-1.839-38.147-27.118-64.346-23.898-32.634 19.763-35.851 20.223c-4.095 0.584-23.44 0.919-23.44 0.919l-2.299-5.056z" fill="#9f5b00" stroke="#000"/>
  <path d="m170.06 155-9.652 34.012-24.819-4.596-9.652 0.459s-9.192 7.813-8.733 11.95 43.204 8.273 43.204 8.273l7.814-12.41 8.732-39.985-6.894 2.297z" fill="#7f5b00" stroke="#000"/>
  <path d="m160.41 205.1 62.969 8.732-50.1-23.44-3.217-0.459z" fill="#adb3b3" stroke="#000"/>
  <path d="m114.45 167.41s24.36 27.577 26.658 28.037 1.379-1.838 1.379-1.838l-22.981-26.658-5.056 0.459z" fill="#adb3b3" stroke="#000"/>
  <path d="m268.88 183.04-5.516 1.379-3.217-20.224 5.056-1.38 3.216 11.953z" fill="#544a45" stroke="#000"/>
  <path d="m269.34 178.44s5.516 1.379 6.436 0 0-4.135 0-4.135l-7.355 0.459 0.919 3.676z" fill="#4f5754" stroke="#000"/>
  <path d="m62.632 80.031s-3.423-0.026-3.644 2.49 2.801 2.438 2.801 2.438 18.508 4.823 25 9.455c9.414 6.718 9.932 4.708 15.559 19.453s21.846 53.233 21.846 53.233l4.525 0.738-16.4-41.108s-6.585-20.994-13.977-28.904-26.97-15.11-35.71-17.795z" fill="#9f5b00" stroke="#000"/>
  <path d="m63.177 81.243s20.281 7.807 21.577 9.428 17.933 11.919 24.143 29.387 13.342 33.028 13.342 33.028-14.533-48.343-27.447-58.108c-12.916-9.766-31.615-13.735-31.615-13.735z" opacity=".56"/>
  <path d="m100.72 110.23s20.537 40.033 21.768 50.21 2.788 4.148 2.788 4.148-15.793-28.514-24.556-54.358z" fill="#fff" opacity=".41"/>
  <path d="m61.57 80.828s17.479 5.37 20.37 9.117-16.87-6.068-21.304-5.5 0.934-3.617 0.934-3.617z" fill="#fff" opacity=".41"/>
  <path d="m90.55 127.43 17.007-5.517" fill="none" stroke="#9f5b00" stroke-width="3"/>
  <path d="m60.969 100.25 29.748-7.24" fill="none" stroke="#9f5b00" stroke-width="3"/>
  <path d="m24.365 91.115s-3.677 0.92-3.217 3.678 3.677 1.838 3.677 1.838 21.175 0.048 29.416 3.218c11.951 4.596 11.951 2.298 22.062 16.546s38.148 51.018 38.148 51.018l5.056-0.459-28.957-39.528s-12.869-20.684-22.981-27.117c-10.111-6.436-33.092-8.734-43.204-9.194z" fill="#9f5b00" stroke="#000"/>
  <path d="m25.285 92.265s23.9 2.758 25.739 4.137 22.521 7.814 34.012 24.819 23.44 31.714 23.44 31.714-28.956-47.802-45.503-54.696-37.688-5.974-37.688-5.974z" opacity=".56"/>
  <path d="m73.544 112.95s33.093 37.229 37.229 47.801 4.136 3.677 4.136 3.677-24.819-26.199-41.365-51.478z" fill="#fff" opacity=".41"/>
  <path d="m23.446 92.265s20.224 0.919 24.36 4.137-19.763-1.838-24.36 0 0-4.137 0-4.137z" fill="#fff" opacity=".41"/>
  <path d="m163.63 150.64s21.603-5.977 30.795-3.219 45.962 17.927 47.8 21.604-42.284-35.161-69.402-23.211c-5.643 2.486-9.193 4.826-9.193 4.826z" fill="#fff" opacity=".68"/>
  <path d="m166.85 155.46s-19.764 17.007-22.521 17.007-8.733-0.92-8.733-0.92 22.061-9.652 25.28-15.167 5.974-0.92 5.974-0.92z" fill="#fff" opacity=".44"/>
  <path d="m169.6 191.31 43.664 18.385-40.447-19.303z" fill="#fff"/>
  <path d="m204.08 208.78 9.193 0.919-43.205-17.006-3.677 4.136v2.299z" fill="url(#a)" opacity=".63"/>
  <path d="m116.75 167.87 23.9 26.658" fill="none" stroke="#fff"/>
  <path d="m139.62 186.03-3.792-0.688 3.448 3.446 26.198 3.447 0.344-2.414z" fill="#fff" opacity=".71"/>
  <path d="m138.93 194.65-16.547-6.551" fill="none" opacity=".43" stroke="#000" stroke-width="5"/>
  <path d="m167.88 188.44 7.929-34.471" fill="none" opacity=".45" stroke="#fff" stroke-width="3"/>
  <path d="m134.44 192.58-6.204-7.929-4.482 2.758-2.757 6.549 11.72 3.793z" opacity=".4"/>
  <path d="m263.37 162.93 2.758 19.303" fill="none" stroke="#000" stroke-width=".5"/>
  <path d="m260.27 169.48 7.928-2.755" fill="none" stroke="#000" stroke-width=".5"/>
  <path d="m262.33 180.51 7.929-2.757" fill="none" stroke="#000" stroke-width=".5"/>
  <path d="m271.64 175 2.068 2.068" fill="none" stroke="#000"/>
  <path d="m248.891,176.72-.347-3.103 12.41.69 1.494,4.136z" opacity=".4"/>
  <path d="m266.47,178.098 .689-3.791-1.034-4.828-2.413-.343-2.642,1.035 1.609,4.824 .688,3.447 4.827.345" fill="#8c6b12" opacity=".75"/>
  <path d="m117.9 193.61s18.614 11.721 42.055 0.688 3.447 2.069 3.447 2.069l-2.988 8.733c0 2e-3 -39.756-1.148-42.514-11.49z" opacity=".24"/>
  <path d="m170.75 155.46s-9.191 30.336-4.365 31.714-5.516 0.459-5.516 0.459l9.881-32.173z" opacity=".3"/>
 </g>
</svg>
